# Blender 4.3.2
# www.blender.org
mtllib dc.mtl
o Cube
v 0.000000 0.500000 -2.000000
v 0.000000 -1.500000 -2.000000
v 0.000000 -1.500000 0.000000
v -2.000000 0.500000 -2.000000
v -2.000000 -1.500000 -2.000000
v -2.000000 0.500000 0.000000
v -2.000000 -1.500000 0.000000
vn 1.0000 -0.0000 -0.0000
vn -0.0000 1.0000 -0.0000
vn -0.0000 -0.0000 1.0000
vt 0.375000 0.250000
vt 0.625000 0.000000
vt 0.375000 0.000000
vt 0.125000 0.750000
vt 0.375000 0.500000
vt 0.125000 0.500000
vt 0.625000 0.250000
vt 0.375000 0.750000
vt 0.625000 0.500000
s 0
usemtl Material
f 5/1/1 6/2/1 7/3/1
f 7/4/2 2/5/2 5/6/2
f 2/5/3 4/7/3 5/1/3
f 5/1/1 4/7/1 6/2/1
f 7/4/2 3/8/2 2/5/2
f 2/5/3 1/9/3 4/7/3
o DC
v -1.191695 -0.866484 -0.737558
v -1.194178 -0.861538 -0.740117
v -1.191419 -0.862238 -0.733710
v -1.186825 -0.867331 -0.737978
v -1.193936 -0.855761 -0.749262
v -1.082902 -0.866281 -0.843029
v -1.190737 -0.860132 -0.751393
v -1.188179 -0.849969 -0.757893
v -1.114988 -0.867437 -0.662610
v -1.075323 -0.859620 -0.860332
v -1.083792 -0.867444 -0.835719
v -1.072835 -0.850778 -0.867087
v -1.063516 -0.865680 -0.858423
v -1.008671 -0.867284 -0.763064
v -0.988015 -0.865580 -0.779066
v -1.047522 -0.857735 -0.880599
v -1.043504 -0.860547 -0.876612
v -1.043220 -0.848748 -0.892151
v -1.022641 -0.845457 -0.904644
v -0.970127 -0.860899 -0.796799
v -0.959495 -0.856248 -0.807700
v -1.031171 -0.855239 -0.887549
v -1.022262 -0.850266 -0.897407
v -0.946873 -0.850184 -0.818491
v -0.850882 -0.853532 -1.059945
v -0.835039 -0.861612 -1.074858
v -0.774516 -0.854676 -0.983057
v -0.755277 -0.863912 -1.001052
v -0.822732 -0.865126 -1.094196
v -0.827031 -0.858936 -1.097573
v -0.825374 -0.865155 -1.083597
v -0.829490 -0.850322 -1.098193
v -0.808156 -0.869656 -1.097132
v -0.733566 -0.869951 -1.022213
v -0.798113 -0.870712 -1.110950
v -0.782024 -0.872099 -1.120238
v -0.778192 -0.868076 -1.138056
v -0.786586 -0.856836 -1.138715
v -0.784153 -0.863449 -1.137985
v -0.765361 -0.870752 -1.141701
v -0.747894 -0.857273 -1.172419
v -0.733961 -0.865236 -1.166425
v -0.741078 -0.861826 -1.172146
v -0.748549 -0.849114 -1.175075
v -0.691212 -0.870879 -1.060750
v -0.717371 -0.851355 -1.194540
v -0.706239 -0.852356 -1.193754
v -1.115281 -0.866593 -0.657353
v -1.119493 -0.862137 -0.658054
v -1.114010 -0.862328 -0.655309
v -1.112190 -0.499275 -0.654684
v -1.104163 -0.855979 -0.654619
v -1.102177 -0.860413 -0.657408
v -1.095415 -0.850006 -0.659906
v -1.004632 -0.866216 -0.760911
v -0.981647 -0.850255 -0.767862
v -0.987181 -0.859238 -0.766708
v -0.965873 -0.857880 -0.793541
v -0.953582 -0.848031 -0.797185
v -0.941242 -0.846093 -0.816584
v -0.766326 -0.848039 -0.976830
v -0.736827 -0.859078 -1.003302
v -0.740054 -0.864911 -1.007270
v -0.742502 -0.848314 -0.994762
v -0.708756 -0.871814 -1.044352
v -0.694306 -0.867515 -1.048366
v -0.695402 -0.862070 -1.041596
v -0.657505 -0.849891 -1.075541
v -0.670211 -0.867311 -1.085118
v -0.658465 -0.857168 -1.077672
v -0.657848 -0.861431 -1.084574
v -0.653089 -0.860783 -1.096459
v -0.622483 -0.840933 -1.111966
v -0.628882 -0.848222 -1.112219
v -0.637217 -0.853939 -1.116327
v -1.194049 -0.500435 -0.749129
v -1.119596 -0.498357 -0.657996
v -1.191415 -0.498292 -0.733842
v -1.194049 -0.499215 -0.740423
v -1.188296 -0.510730 -0.757785
v -1.191709 -0.494027 -0.737208
v -1.186672 -0.492560 -0.738130
v -1.190327 -0.494450 -0.742544
v -1.115036 -0.492614 -0.662609
v -1.154805 -0.806946 -0.789546
v -1.157297 -0.548067 -0.787227
v -1.146583 -0.793658 -0.794334
v -1.140077 -0.796382 -0.798875
v -1.137564 -0.784493 -0.793712
v -1.129743 -0.787441 -0.794127
v -1.129862 -0.784952 -0.791078
v -1.131430 -0.779843 -0.790802
v -1.077127 -0.805470 -0.863154
v -1.126974 -0.789559 -0.798689
v -1.088654 -0.789588 -0.830994
v -1.059415 -0.778017 -0.715048
v -1.057907 -0.787532 -0.718766
v -1.131234 -0.576228 -0.790757
v -1.152890 -0.554634 -0.790747
v -1.137190 -0.574203 -0.793770
v -1.146563 -0.564711 -0.794282
v -1.128353 -0.570394 -0.796415
v -1.121826 -0.570444 -0.803590
v -1.059519 -0.580079 -0.715027
v -1.059325 -0.575222 -0.716092
v -1.137085 -0.566218 -0.797593
v -1.141206 -0.561888 -0.798861
v -1.074051 -0.502718 -0.863303
v -1.076089 -0.796100 -0.860405
v -1.079672 -0.790300 -0.846524
v -1.079619 -0.570886 -0.843459
v -1.005652 -0.570938 -0.766387
v -1.085060 -0.563314 -0.852034
v -1.081522 -0.492657 -0.837863
v -1.076023 -0.495132 -0.852186
v -1.070119 -0.787978 -0.848310
v -1.058531 -0.784181 -0.863673
v -0.982623 -0.783529 -0.787498
v -0.997915 -0.787899 -0.773592
v -1.063576 -0.572877 -0.864274
v -1.059483 -0.574835 -0.858260
v -1.070439 -0.510452 -0.869615
v -1.060012 -0.568763 -0.876387
v -1.036548 -0.834764 -0.901783
v -1.059873 -0.789679 -0.876069
v -1.045195 -0.777593 -0.876120
v -1.041765 -0.776048 -0.885786
v -1.040863 -0.787514 -0.897581
v -1.042827 -0.780830 -0.892665
v -1.033954 -0.768300 -0.887197
v -0.969609 -0.777396 -0.796858
v -0.958251 -0.768416 -0.807232
v -1.056656 -0.573377 -0.875346
v -1.049029 -0.579970 -0.872202
v -1.036843 -0.588179 -0.883792
v -1.036492 -0.586827 -0.894227
v -1.035235 -0.584179 -0.900737
v -0.985014 -0.575300 -0.782266
v -0.975358 -0.579376 -0.791949
v -0.967576 -0.585040 -0.802537
v -1.067261 -0.556969 -0.872622
v -1.059955 -0.494826 -0.861820
v -1.056690 -0.499808 -0.871779
v -1.035084 -0.506908 -0.893509
v -1.039395 -0.500443 -0.881175
v -0.965363 -0.499987 -0.800689
v -1.019683 -0.762771 -0.917765
v -1.005785 -0.821211 -0.928572
v -1.007496 -0.840928 -0.909546
v -1.000114 -0.831587 -0.920551
v -1.023754 -0.758722 -0.910573
v -1.024572 -0.757294 -0.901918
v -1.022669 -0.757410 -0.893556
v -1.017789 -0.746877 -0.901511
v -1.010622 -0.731094 -0.908400
v -1.012247 -0.731981 -0.914938
v -0.951665 -0.758508 -0.817404
v -0.944431 -0.747688 -0.823421
v -0.937627 -0.735518 -0.827758
v -1.003562 -0.706713 -0.913708
v -1.014249 -0.614127 -0.901233
v -1.009925 -0.630841 -0.913559
v -1.017927 -0.612769 -0.907818
v -1.016773 -0.611380 -0.916713
v -1.006795 -0.630910 -0.906978
v -0.936442 -0.632932 -0.833979
v -1.023511 -0.602842 -0.897438
v -1.026842 -0.595937 -0.889535
v -1.038526 -0.573069 -0.899891
v -1.033093 -0.524787 -0.904689
v -1.008972 -0.533319 -0.924880
v -1.041007 -0.511504 -0.894452
v -1.019531 -0.509905 -0.899888
v -1.002355 -0.530570 -0.925453
v -1.011702 -0.516100 -0.908154
v -0.951690 -0.507094 -0.817522
v -0.982935 -0.775795 -0.952625
v -0.991774 -0.827148 -0.923065
v -0.990220 -0.816082 -0.935082
v -0.979895 -0.810759 -0.937790
v -0.977425 -0.779579 -0.955251
v -0.969535 -0.794647 -0.947389
v -0.970537 -0.780857 -0.956138
v -0.976735 -0.799961 -0.944915
v -0.995527 -0.681150 -0.940715
v -1.011550 -0.733816 -0.923526
v -1.005310 -0.706623 -0.928320
v -1.005540 -0.706627 -0.919310
v -1.001809 -0.683098 -0.916876
v -1.003558 -0.684818 -0.923816
v -1.002686 -0.698182 -0.932120
v -0.929732 -0.707208 -0.835697
v -1.002302 -0.656993 -0.914507
v -1.004686 -0.656513 -0.920398
v -1.004270 -0.655399 -0.929009
v -1.009925 -0.631500 -0.923862
v -1.009833 -0.613563 -0.927106
v -1.003953 -0.550167 -0.932601
v -0.996124 -0.548874 -0.936998
v -0.988151 -0.536069 -0.929160
v -0.977146 -0.563890 -0.949668
v -0.981023 -0.548750 -0.939241
v -0.916660 -0.532779 -0.847431
v -0.901295 -0.551871 -0.861973
v -1.003209 -0.521602 -0.915461
v -0.964411 -0.784637 -0.952391
v -0.958599 -0.771267 -0.958685
v -0.967504 -0.733250 -0.967196
v -0.961715 -0.739571 -0.969699
v -0.954171 -0.745449 -0.968248
v -0.954827 -0.760669 -0.962300
v -0.877573 -0.750818 -0.887954
v -0.949274 -0.750438 -0.963697
v -0.945844 -0.730064 -0.970176
v -0.949949 -0.720760 -0.973065
v -0.870557 -0.728438 -0.891630
v -0.960857 -0.698588 -0.973156
v -0.954482 -0.692920 -0.976567
v -0.964250 -0.643731 -0.970402
v -0.956518 -0.646179 -0.974602
v -0.973420 -0.604818 -0.961681
v -0.964966 -0.606302 -0.966374
v -0.949071 -0.614663 -0.967173
v -0.981089 -0.568666 -0.951063
v -0.964543 -0.572325 -0.952320
v -0.959087 -0.603468 -0.966150
v -0.955583 -0.593142 -0.960720
v -0.889532 -0.571792 -0.872742
v -0.973312 -0.553758 -0.940417
v -0.926975 -0.728147 -0.987987
v -0.921803 -0.747248 -0.991127
v -0.915942 -0.767796 -0.998108
v -0.922521 -0.749748 -1.007158
v -0.846919 -0.749777 -0.913668
v -0.946726 -0.691114 -0.976940
v -0.942331 -0.709580 -0.973135
v -0.939136 -0.681610 -0.973199
v -0.929903 -0.704801 -0.984414
v -0.932548 -0.684580 -0.988662
v -0.930747 -0.715672 -0.991988
v -0.854830 -0.707256 -0.905839
v -0.931663 -0.704699 -0.998053
v -0.868474 -0.702880 -0.896717
v -0.946793 -0.647446 -0.974850
v -0.939934 -0.659103 -0.972338
v -0.929229 -0.682400 -0.981637
v -0.929465 -0.655300 -0.985197
v -0.930341 -0.645075 -0.992882
v -0.930201 -0.649294 -0.999667
v -0.926412 -0.647304 -1.005901
v -0.851439 -0.631241 -0.909993
v -0.942519 -0.636021 -0.969465
v -0.925284 -0.629390 -0.988518
v -0.925711 -0.625303 -0.995826
v -0.922389 -0.614635 -0.992935
v -0.924377 -0.624118 -1.005241
v -0.919645 -0.600551 -1.001369
v -0.917955 -0.604210 -0.993732
v -0.887305 -0.820197 -1.025841
v -0.820748 -0.808896 -0.938933
v -0.921910 -0.755636 -1.000838
v -0.907646 -0.787339 -1.006136
v -0.906206 -0.789846 -1.022554
v -0.896756 -0.807162 -1.016775
v -0.904571 -0.796062 -1.016706
v -0.882424 -0.823233 -1.045375
v -0.928623 -0.705554 -1.003502
v -0.920112 -0.742458 -1.012294
v -0.909477 -0.582280 -1.001019
v -0.918283 -0.599149 -1.010692
v -0.913738 -0.585977 -1.006331
v -0.906145 -0.572288 -1.007399
v -0.899932 -0.558354 -1.021734
v -0.912591 -0.598979 -1.019442
v -0.899911 -0.562638 -1.028213
v -0.900132 -0.560132 -1.013847
v -0.891797 -0.547419 -1.021924
v -0.880129 -0.829223 -1.041846
v -0.881004 -0.828066 -1.032149
v -0.867224 -0.841320 -1.043902
v -0.873272 -0.825321 -1.056741
v -0.854961 -0.849445 -1.064891
v -0.791269 -0.842269 -0.966253
v -0.905591 -0.780420 -1.026064
v -0.883479 -0.734463 -1.046912
v -0.864496 -0.772444 -1.064929
v -0.873843 -0.739114 -1.053021
v -0.868561 -0.736590 -1.052820
v -0.859089 -0.739347 -1.052589
v -0.783572 -0.740196 -0.973913
v -0.883600 -0.709485 -1.044951
v -0.873859 -0.705076 -1.045308
v -0.866293 -0.710193 -1.043290
v -0.867464 -0.696548 -1.041013
v -0.870221 -0.679980 -1.042335
v -0.864142 -0.724513 -1.047589
v -0.887197 -0.640662 -1.043295
v -0.883316 -0.670313 -1.043791
v -0.874319 -0.670705 -1.043776
v -0.867381 -0.664670 -1.040960
v -0.866888 -0.649993 -1.044552
v -0.870133 -0.639755 -1.048388
v -0.791809 -0.651476 -0.964851
v -0.863685 -0.585668 -1.065776
v -0.877568 -0.635984 -1.049095
v -0.863774 -0.637772 -1.047010
v -0.865213 -0.603979 -1.061495
v -0.785323 -0.626307 -0.972110
v -0.891044 -0.548521 -1.037415
v -0.884547 -0.538239 -1.028553
v -0.878247 -0.531193 -1.039116
v -0.873400 -0.526850 -1.036884
v -0.861411 -0.526974 -1.067951
v -0.864940 -0.522418 -1.061019
v -0.806981 -0.536272 -0.950244
v -0.801993 -0.528134 -0.959064
v -0.869469 -0.522048 -1.050362
v -0.858146 -0.513297 -1.052179
v -0.784684 -0.514311 -0.972035
v -0.857075 -0.845514 -1.068488
v -0.857330 -0.769999 -1.069120
v -0.836485 -0.776806 -1.079973
v -0.827463 -0.778193 -1.079330
v -0.851386 -0.753230 -1.058993
v -0.851373 -0.762463 -1.065999
v -0.843258 -0.762689 -1.063850
v -0.836177 -0.770445 -1.070505
v -0.778472 -0.752726 -0.981711
v -0.771928 -0.762224 -0.987885
v -0.860151 -0.627150 -1.050466
v -0.855292 -0.615017 -1.055891
v -0.861803 -0.612510 -1.058357
v -0.842915 -0.598659 -1.063653
v -0.847839 -0.582472 -1.077666
v -0.845325 -0.592046 -1.071436
v -0.835679 -0.588620 -1.073996
v -0.830476 -0.561631 -1.096693
v -0.826572 -0.580770 -1.083383
v -0.833546 -0.572001 -1.090714
v -0.772367 -0.599906 -0.987173
v -0.761300 -0.588531 -0.995900
v -0.852863 -0.510347 -1.063436
v -0.848230 -0.511555 -1.077273
v -0.845606 -0.504980 -1.065041
v -0.835718 -0.500811 -1.082295
v -0.836535 -0.500281 -1.073514
v -0.832063 -0.512398 -1.095835
v -0.828181 -0.802487 -1.099304
v -0.833715 -0.789693 -1.090911
v -0.826898 -0.784261 -1.089053
v -0.814112 -0.786763 -1.095554
v -0.811024 -0.799323 -1.112601
v -0.806728 -0.794599 -1.110389
v -0.731485 -0.789430 -1.023336
v -0.754415 -0.779134 -1.004758
v -0.816326 -0.574770 -1.092151
v -0.808940 -0.567667 -1.106633
v -0.804639 -0.570428 -1.102217
v -0.744625 -0.575743 -1.013322
v -0.819189 -0.563619 -1.104883
v -0.807687 -0.550240 -1.118963
v -0.817143 -0.499922 -1.107290
v -0.823652 -0.494735 -1.086023
v -0.808672 -0.492993 -1.107483
v -0.803939 -0.489765 -1.104787
v -0.786051 -0.503967 -1.139355
v -0.730476 -0.490070 -1.024178
v -0.781255 -0.809171 -1.144007
v -0.796192 -0.791875 -1.111568
v -0.780600 -0.800840 -1.140586
v -0.777551 -0.795530 -1.136612
v -0.769829 -0.792202 -1.131485
v -0.721952 -0.791926 -1.033201
v -0.796362 -0.558215 -1.126409
v -0.788065 -0.567752 -1.113513
v -0.789084 -0.564513 -1.125207
v -0.767776 -0.568312 -1.133976
v -0.783958 -0.497096 -1.138352
v -0.781975 -0.490795 -1.132703
v -0.772197 -0.487528 -1.128441
v -0.750397 -0.788380 -1.161302
v -0.754227 -0.796669 -1.167994
v -0.742861 -0.784887 -1.157096
v -0.742620 -0.788930 -1.177301
v -0.685767 -0.789662 -1.067331
v -0.748430 -0.572728 -1.164118
v -0.744915 -0.574042 -1.154259
v -0.765111 -0.566464 -1.148780
v -0.765542 -0.553627 -1.158927
v -0.766266 -0.561347 -1.154762
v -0.763177 -0.490491 -1.143460
v -0.754925 -0.501862 -1.165834
v -0.743405 -0.514886 -1.179845
v -0.753196 -0.495204 -1.160054
v -0.673481 -0.492843 -1.082761
v -0.714733 -0.840921 -1.204820
v -0.726340 -0.776081 -1.185781
v -0.717750 -0.770608 -1.181963
v -0.705930 -0.774632 -1.215411
v -0.723801 -0.778793 -1.195624
v -0.668170 -0.782538 -1.089152
v -0.734351 -0.580120 -1.171856
v -0.733958 -0.572760 -1.187176
v -0.720011 -0.587186 -1.178604
v -0.724682 -0.584731 -1.186454
v -0.721002 -0.584507 -1.197837
v -0.742791 -0.493311 -1.158610
v -0.713217 -0.505387 -1.187992
v -0.720130 -0.508335 -1.191770
v -0.717020 -0.517603 -1.201612
v -0.643327 -0.504491 -1.110327
v -0.706833 -0.824795 -1.214664
v -0.702899 -0.843632 -1.206792
v -0.691260 -0.841528 -1.209549
v -0.696943 -0.830172 -1.220846
v -0.685657 -0.836126 -1.217948
v -0.687310 -0.827345 -1.219934
v -0.706537 -0.763701 -1.211384
v -0.697618 -0.759396 -1.220263
v -0.689101 -0.752017 -1.220446
v -0.711071 -0.764295 -1.198852
v -0.706462 -0.761182 -1.194159
v -0.694682 -0.750580 -1.208917
v -0.693179 -0.750195 -1.217515
v -0.687405 -0.744388 -1.215540
v -0.644281 -0.768128 -1.111435
v -0.688721 -0.611238 -1.215047
v -0.688894 -0.611170 -1.210439
v -0.614190 -0.611119 -1.137238
v -0.702052 -0.602309 -1.201577
v -0.704237 -0.597022 -1.213611
v -0.708886 -0.583066 -1.212636
v -0.693518 -0.607025 -1.218104
v -0.699741 -0.595797 -1.218104
v -0.689669 -0.607012 -1.217412
v -0.684496 -0.607804 -1.214771
v -0.684674 -0.528094 -1.215113
v -0.708658 -0.531323 -1.212836
v -0.692310 -0.525895 -1.218589
v -0.699542 -0.513704 -1.202518
v -0.701010 -0.527158 -1.217789
v -0.688533 -0.520750 -1.214787
v -0.613623 -0.519996 -1.134492
v -0.613582 -0.522968 -1.138130
v -0.682093 -0.831940 -1.217162
v -0.610230 -0.831616 -1.141706
v -0.681850 -0.748850 -1.217186
v -0.685457 -0.744359 -1.217990
v -1.104234 -0.500817 -0.654762
v -1.095388 -0.510856 -0.659923
v -1.115262 -0.493899 -0.656914
v -1.002658 -0.494732 -0.760400
v -1.062359 -0.807425 -0.691262
v -0.980869 -0.805178 -0.768662
v -1.051848 -0.789643 -0.718476
v -1.056819 -0.792182 -0.699515
v -1.052949 -0.796265 -0.704980
v -1.058958 -0.784630 -0.715950
v -1.056826 -0.785586 -0.708994
v -1.056650 -0.567557 -0.699765
v -1.062444 -0.552092 -0.691157
v -1.056785 -0.574216 -0.708714
v -1.079749 -0.570510 -0.745660
v -1.052651 -0.570550 -0.717804
v -1.054302 -0.560767 -0.701643
v -1.053076 -0.565411 -0.707512
v -0.978278 -0.510292 -0.771057
v -1.012230 -0.492565 -0.759957
v -1.004115 -0.570476 -0.762847
v -0.986341 -0.555775 -0.763713
v -0.995767 -0.563758 -0.758626
v -0.983437 -0.502138 -0.769323
v -1.011894 -0.789519 -0.756151
v -0.985738 -0.796954 -0.767174
v -0.997192 -0.791473 -0.764087
v -0.977835 -0.785213 -0.783739
v -0.976125 -0.573423 -0.782993
v -0.971353 -0.566192 -0.779441
v -0.985923 -0.494601 -0.781241
v -0.945317 -0.836469 -0.802319
v -0.952879 -0.790464 -0.795320
v -0.955162 -0.782450 -0.796083
v -0.959670 -0.776368 -0.799085
v -0.948706 -0.582520 -0.802357
v -0.955262 -0.588794 -0.805528
v -0.947751 -0.572824 -0.800094
v -0.956520 -0.592877 -0.809728
v -0.944776 -0.522285 -0.802816
v -0.948637 -0.513040 -0.801803
v -0.918121 -0.823769 -0.831158
v -0.932567 -0.839835 -0.833261
v -0.927233 -0.834943 -0.831081
v -0.910181 -0.812802 -0.836777
v -0.922026 -0.754611 -0.824539
v -0.936351 -0.762329 -0.814028
v -0.943532 -0.757443 -0.815658
v -0.923568 -0.736948 -0.826267
v -0.930382 -0.733783 -0.826863
v -0.934018 -0.725458 -0.830934
v -0.941187 -0.615041 -0.825036
v -0.928969 -0.628037 -0.828458
v -0.928439 -0.608636 -0.821696
v -0.946622 -0.604606 -0.818791
v -0.937763 -0.602650 -0.816741
v -0.922813 -0.601984 -0.823893
v -0.941186 -0.512118 -0.823392
v -0.951047 -0.507183 -0.806780
v -0.904418 -0.809507 -0.859986
v -0.918428 -0.826644 -0.846818
v -0.907771 -0.815846 -0.848145
v -0.884491 -0.762732 -0.860027
v -0.898072 -0.796964 -0.850706
v -0.894133 -0.794990 -0.862991
v -0.924070 -0.706602 -0.833805
v -0.926414 -0.682993 -0.837527
v -0.916377 -0.687084 -0.835413
v -0.907172 -0.702384 -0.838731
v -0.913676 -0.697341 -0.835555
v -0.929111 -0.657140 -0.837390
v -0.923768 -0.655492 -0.834662
v -0.914305 -0.654425 -0.834711
v -0.907982 -0.648565 -0.837915
v -0.921712 -0.624530 -0.827609
v -0.893389 -0.575186 -0.851597
v -0.915430 -0.536779 -0.833531
v -0.911774 -0.537964 -0.851425
v -0.929099 -0.520713 -0.835325
v -0.916108 -0.532756 -0.838384
v -0.893002 -0.790484 -0.871539
v -0.882963 -0.770993 -0.879333
v -0.883887 -0.773382 -0.863401
v -0.884731 -0.778414 -0.869652
v -0.870638 -0.734550 -0.876362
v -0.870722 -0.713015 -0.873096
v -0.878903 -0.760920 -0.881958
v -0.872735 -0.744438 -0.882527
v -0.867130 -0.714954 -0.891644
v -0.864734 -0.690834 -0.882002
v -0.876756 -0.616944 -0.867440
v -0.866837 -0.647448 -0.879057
v -0.875173 -0.610123 -0.886831
v -0.874695 -0.608858 -0.872308
v -0.890446 -0.570967 -0.857273
v -0.874949 -0.604828 -0.878908
v -0.881521 -0.590191 -0.880409
v -0.891219 -0.565920 -0.865214
v -0.852179 -0.728434 -0.909151
v -0.847086 -0.716814 -0.904813
v -0.858088 -0.684332 -0.906713
v -0.863919 -0.691210 -0.890114
v -0.867391 -0.678978 -0.897593
v -0.851272 -0.685270 -0.903096
v -0.841475 -0.705914 -0.903755
v -0.867087 -0.654389 -0.894710
v -0.854471 -0.657125 -0.905814
v -0.865821 -0.647631 -0.886594
v -0.846938 -0.639446 -0.906202
v -0.839301 -0.648187 -0.905329
v -0.871548 -0.634228 -0.894081
v -0.845643 -0.607815 -0.915308
v -0.871590 -0.623447 -0.889373
v -0.828721 -0.598701 -0.916405
v -0.831381 -0.790048 -0.928351
v -0.840136 -0.769960 -0.919863
v -0.819879 -0.796814 -0.930027
v -0.815488 -0.791984 -0.928801
v -0.818770 -0.768027 -0.922395
v -0.837268 -0.757369 -0.913773
v -0.831966 -0.753441 -0.913218
v -0.834589 -0.707318 -0.907372
v -0.794425 -0.722814 -0.945560
v -0.799999 -0.661452 -0.940190
v -0.828845 -0.629024 -0.912930
v -0.838764 -0.584140 -0.924907
v -0.834910 -0.593167 -0.917638
v -0.818615 -0.593538 -0.922666
v -0.830401 -0.573547 -0.927396
v -0.816524 -0.575319 -0.927712
v -0.826857 -0.562855 -0.933404
v -0.815696 -0.546804 -0.942485
v -0.813729 -0.554602 -0.936228
v -0.813484 -0.815466 -0.942829
v -0.806910 -0.826946 -0.951634
v -0.794546 -0.831110 -0.954356
v -0.791193 -0.825294 -0.951807
v -0.785015 -0.736641 -0.957466
v -0.786071 -0.730364 -0.964970
v -0.777528 -0.749041 -0.970332
v -0.795740 -0.696975 -0.965467
v -0.790608 -0.724719 -0.970211
v -0.793172 -0.710593 -0.966478
v -0.792352 -0.705708 -0.950722
v -0.791991 -0.704524 -0.959156
v -0.796527 -0.680882 -0.964817
v -0.795360 -0.658001 -0.945501
v -0.793497 -0.670349 -0.950797
v -0.793534 -0.675893 -0.959063
v -0.789525 -0.640751 -0.953218
v -0.795831 -0.665293 -0.965418
v -0.788382 -0.639036 -0.962319
v -0.789695 -0.637553 -0.969262
v -0.781296 -0.603149 -0.957965
v -0.778309 -0.609824 -0.963845
v -0.799933 -0.547933 -0.942444
v -0.780606 -0.538604 -0.958723
v -0.787059 -0.521795 -0.963103
v -0.784125 -0.823832 -0.955882
v -0.774750 -0.839743 -0.967721
v -0.732286 -0.806664 -1.004495
v -0.762594 -0.770464 -0.992880
v -0.770276 -0.775119 -0.968524
v -0.749608 -0.781618 -1.000431
v -0.768509 -0.767243 -0.973639
v -0.769657 -0.762858 -0.981847
v -0.779642 -0.613245 -0.978099
v -0.779396 -0.615560 -0.971550
v -0.760896 -0.584987 -0.980273
v -0.754815 -0.569856 -0.983120
v -0.770005 -0.600177 -0.979155
v -0.762048 -0.590087 -0.988890
v -0.744339 -0.571004 -0.995881
v -0.737615 -0.511868 -0.999411
v -0.749923 -0.495031 -1.006507
v -0.769822 -0.520976 -0.970891
v -0.758926 -0.511297 -0.982635
v -0.767880 -0.506963 -0.983777
v -0.768495 -0.503317 -0.988876
v -0.751569 -0.500100 -0.996598
v -0.745816 -0.788849 -0.994886
v -0.739920 -0.785817 -1.012673
v -0.720451 -0.800061 -1.018328
v -0.751324 -0.580817 -1.003834
v -0.732226 -0.570836 -1.023564
v -0.745468 -0.576302 -1.004358
v -0.725955 -0.567291 -1.021718
v -0.719753 -0.551090 -1.016381
v -0.726558 -0.562193 -1.012930
v -0.727331 -0.500105 -1.011704
v -0.725721 -0.492712 -1.021449
v -0.688199 -0.504529 -1.046367
v -0.683746 -0.809921 -1.050624
v -0.704419 -0.792422 -1.054994
v -0.721211 -0.794807 -1.024592
v -0.695021 -0.795694 -1.050335
v -0.696770 -0.568394 -1.060509
v -0.719773 -0.567708 -1.043971
v -0.710123 -0.565933 -1.040606
v -0.705287 -0.558827 -1.033682
v -0.695234 -0.497137 -1.042751
v -0.700316 -0.490299 -1.046296
v -0.691256 -0.801896 -1.046445
v -0.663642 -0.794635 -1.072945
v -0.654334 -0.799110 -1.078684
v -0.675091 -0.574036 -1.081200
v -0.665591 -0.572320 -1.077601
v -0.682570 -0.566540 -1.062338
v -0.678254 -0.560805 -1.059104
v -0.673003 -0.554677 -1.061156
v -0.657555 -0.512391 -1.075400
v -0.665231 -0.501657 -1.071305
v -0.669855 -0.495143 -1.075134
v -0.657493 -0.500805 -1.084271
v -0.704514 -0.487425 -1.055308
v -0.688750 -0.490140 -1.064719
v -0.631122 -0.838233 -1.100478
v -0.613263 -0.824524 -1.117412
v -0.667275 -0.788266 -1.077002
v -0.636994 -0.780701 -1.097947
v -0.640273 -0.773410 -1.102767
v -0.649298 -0.588036 -1.106767
v -0.662569 -0.577930 -1.087749
v -0.647030 -0.572590 -1.088466
v -0.639816 -0.567587 -1.092351
v -0.643693 -0.584538 -1.100037
v -0.652991 -0.500875 -1.096719
v -0.626242 -0.518594 -1.108286
v -0.616174 -0.840492 -1.132947
v -0.624174 -0.845852 -1.123594
v -0.607231 -0.830245 -1.126413
v -0.609698 -0.836226 -1.137811
v -0.607302 -0.827644 -1.134179
v -0.612495 -0.772783 -1.118233
v -0.607371 -0.751448 -1.135070
v -0.614123 -0.744319 -1.137705
v -0.624727 -0.755675 -1.123145
v -0.610560 -0.758542 -1.123707
v -0.607397 -0.761199 -1.126469
v -0.610817 -0.750080 -1.130332
v -0.612613 -0.607958 -1.139189
v -0.614981 -0.584694 -1.115926
v -0.627897 -0.600663 -1.120247
v -0.624052 -0.591645 -1.111546
v -0.614297 -0.611032 -1.133309
v -0.614044 -0.597894 -1.120441
v -0.610128 -0.596879 -1.124122
v -0.609771 -0.606712 -1.131796
v -0.612312 -0.527913 -1.138725
v -0.616423 -0.530455 -1.114425
v -0.610128 -0.527320 -1.123179
v -0.609513 -0.524889 -1.131752
v -0.631646 -0.511458 -1.109791
v -0.628012 -0.512357 -1.121460
v -0.610160 -0.748656 -1.141488
v -0.609544 -0.744297 -1.137668
vn -0.6436 -0.7584 0.1034
vn -0.9593 -0.2802 0.0356
vn -0.7991 -0.2245 0.5577
vn -0.1305 -0.9912 -0.0225
vn -0.9206 -0.1738 -0.3498
vn -0.2894 -0.8948 -0.3401
vn -0.6541 -0.5577 -0.5110
vn -0.7410 -0.1132 -0.6619
vn 0.0019 -0.9929 0.1187
vn -0.5068 -0.6066 -0.6125
vn -0.0646 -0.9933 -0.0954
vn -0.6528 -0.2034 -0.7298
vn -0.1185 -0.9466 -0.2998
vn 0.0973 -0.9931 0.0653
vn 0.3013 -0.9426 0.1442
vn -0.2715 -0.7731 -0.5732
vn 0.0235 -0.9433 -0.3311
vn -0.4739 -0.4845 -0.7353
vn -0.1773 -0.7035 -0.6882
vn 0.3311 -0.9436 0.0097
vn 0.3883 -0.9205 -0.0436
vn 0.0775 -0.9203 -0.3835
vn 0.0965 -0.8989 -0.4273
vn 0.4381 -0.8957 -0.0758
vn -0.4715 -0.8787 0.0749
vn -0.4167 -0.9090 -0.0044
vn -0.0791 -0.8811 0.4662
vn -0.0076 -0.9208 0.3899
vn -0.4871 -0.8234 -0.2913
vn -0.6739 -0.4830 -0.5591
vn -0.2930 -0.9558 0.0261
vn -0.7068 -0.1338 -0.6946
vn -0.2028 -0.9791 -0.0186
vn 0.1085 -0.9590 0.2619
vn -0.2795 -0.9377 -0.2064
vn -0.0987 -0.9905 -0.0954
vn -0.4023 -0.7881 -0.4659
vn -0.6761 -0.1755 -0.7157
vn -0.5919 -0.5077 -0.6261
vn -0.1270 -0.9535 -0.2734
vn -0.5226 -0.4933 -0.6954
vn 0.0415 -0.9559 -0.2906
vn -0.2531 -0.7936 -0.5534
vn -0.6527 -0.1535 -0.7419
vn 0.2652 -0.9525 0.1497
vn -0.2114 -0.7583 -0.6167
vn 0.1288 -0.9052 -0.4051
vn -0.1277 -0.7586 0.6389
vn -0.6056 -0.2216 0.7643
vn -0.1303 -0.2555 0.9580
vn -0.1370 0.1849 0.9732
vn 0.2827 -0.1652 0.9449
vn 0.4670 -0.5480 0.6940
vn 0.6247 -0.1061 0.7737
vn 0.3275 -0.8910 0.3145
vn 0.6946 -0.1784 0.6969
vn 0.5925 -0.5885 0.5502
vn 0.5669 -0.7621 0.3127
vn 0.7115 -0.4663 0.5257
vn 0.6800 -0.6948 0.2343
vn 0.3718 -0.5569 0.7427
vn 0.5347 -0.4762 0.6981
vn 0.2775 -0.8113 0.5145
vn 0.6417 -0.1563 0.7509
vn 0.1908 -0.9511 0.2430
vn 0.4868 -0.7401 0.4640
vn 0.6279 -0.3951 0.6705
vn 0.7049 -0.1544 0.6923
vn 0.2759 -0.9609 0.0221
vn 0.6706 -0.4857 0.5607
vn 0.5530 -0.7761 0.3031
vn 0.4278 -0.9025 0.0501
vn 0.7576 -0.4709 0.4520
vn 0.6361 -0.7356 0.2330
vn 0.3994 -0.9121 -0.0921
vn -0.8425 0.3891 -0.3726
vn -0.5946 0.2018 0.7783
vn -0.8123 0.1922 0.5506
vn -0.9639 0.2470 0.0995
vn -0.7446 0.0839 -0.6622
vn -0.6931 0.6990 0.1762
vn -0.1860 0.9825 -0.0039
vn -0.5208 0.8128 -0.2611
vn -0.0016 0.9863 0.1648
vn -0.6634 0.0302 -0.7476
vn -0.6819 -0.0095 -0.7314
vn -0.4419 0.1036 -0.8911
vn -0.5046 0.4242 -0.7520
vn 0.1297 0.2079 -0.9695
vn 0.1552 0.7881 -0.5957
vn 0.5127 0.5032 -0.6957
vn 0.5580 0.0859 -0.8254
vn -0.6972 0.1268 -0.7056
vn -0.1749 0.9240 -0.3399
vn -0.0573 0.9976 -0.0384
vn 0.8451 0.0485 -0.5324
vn 0.3809 0.7891 -0.4819
vn 0.5127 -0.3850 -0.7674
vn -0.6400 -0.0593 -0.7661
vn 0.0672 -0.2516 -0.9655
vn -0.4470 -0.1359 -0.8841
vn -0.0202 -0.8943 -0.4471
vn -0.2083 -0.9561 -0.2063
vn 0.8455 -0.0579 -0.5308
vn 0.7222 -0.5377 -0.4351
vn -0.3782 -0.5972 -0.7074
vn -0.5654 -0.4174 -0.7115
vn -0.5526 0.5134 -0.6565
vn -0.6736 0.4657 -0.5740
vn -0.3756 0.8763 -0.3015
vn -0.2796 -0.9432 -0.1794
vn -0.0134 -0.9951 0.0979
vn -0.5991 -0.5705 -0.5618
vn -0.0989 0.9858 -0.1358
vn -0.3366 0.8472 -0.4110
vn -0.1620 0.9851 0.0577
vn -0.3839 0.9216 -0.0580
vn -0.1094 0.9459 0.3055
vn 0.0030 0.9762 0.2169
vn -0.4941 -0.8319 -0.2525
vn -0.2517 -0.9663 0.0545
vn -0.6598 0.1613 -0.7339
vn -0.7277 -0.4427 -0.5238
vn -0.6340 -0.1375 -0.7610
vn -0.6970 0.5365 -0.4758
vn -0.4988 0.8634 0.0753
vn -0.7262 0.6603 -0.1914
vn -0.7292 0.1029 -0.6766
vn -0.7832 0.3977 -0.4780
vn -0.5800 0.7829 0.2251
vn -0.1394 0.8842 0.4458
vn -0.2628 0.7876 0.5573
vn -0.6587 -0.6817 -0.3183
vn -0.4520 -0.8910 0.0431
vn -0.5464 -0.8278 0.1273
vn -0.7699 -0.5940 -0.2331
vn -0.8151 -0.3171 -0.4848
vn 0.0361 -0.9314 0.3622
vn -0.1124 -0.9088 0.4019
vn -0.2645 -0.8965 0.3553
vn -0.7031 -0.1058 -0.7032
vn -0.1042 0.9480 -0.3008
vn -0.3356 0.7545 -0.5639
vn -0.2172 0.7570 -0.6162
vn -0.0120 0.9342 -0.3567
vn 0.3779 0.9224 0.0793
vn -0.7520 0.0724 -0.6552
vn -0.3933 -0.3955 -0.8300
vn 0.2112 -0.8459 -0.4897
vn 0.0841 -0.7527 -0.6530
vn -0.8650 0.3445 -0.3647
vn -0.7985 0.6012 -0.0309
vn -0.6149 0.7049 0.3536
vn -0.7788 0.5462 0.3085
vn -0.8086 0.4295 0.4021
vn -0.9403 0.3396 0.0203
vn -0.3850 0.7222 0.5747
vn -0.5116 0.5724 0.6409
vn -0.4429 0.4920 0.7495
vn -0.8304 0.2331 0.5061
vn -0.6834 -0.5735 0.4518
vn -0.9103 -0.3568 0.2098
vn -0.8937 -0.4458 0.0504
vn -0.8928 -0.2844 -0.3494
vn -0.7550 -0.3969 0.5220
vn -0.5527 -0.3749 0.7444
vn -0.6877 -0.6839 0.2436
vn -0.3810 -0.7870 0.4852
vn -0.7149 -0.0743 -0.6952
vn -0.6265 0.1516 -0.7646
vn -0.4361 0.3873 -0.8123
vn -0.5035 0.4514 -0.7368
vn 0.0895 0.8732 -0.4790
vn -0.1043 0.6330 -0.7671
vn -0.0645 0.7666 -0.6389
vn 0.3377 0.9300 -0.1449
vn -0.5954 -0.0824 -0.7992
vn 0.3344 -0.7810 -0.5275
vn -0.0170 -0.5984 -0.8010
vn 0.3162 -0.6748 -0.6668
vn -0.3424 -0.2679 -0.9005
vn 0.3605 -0.6001 -0.7140
vn -0.0009 -0.4162 -0.9093
vn 0.0560 -0.5373 -0.8415
vn -0.7364 0.0044 -0.6765
vn -0.9514 0.2477 -0.1828
vn -0.9538 0.1440 -0.2638
vn -0.9695 0.1923 0.1519
vn -0.8782 0.0266 0.4775
vn -0.9978 0.0204 0.0627
vn -0.7488 -0.0842 -0.6574
vn -0.5309 0.2392 0.8129
vn -0.8313 -0.1806 0.5256
vn -0.9787 -0.1466 0.1440
vn -0.9517 -0.1043 -0.2887
vn -0.9390 -0.1839 -0.2905
vn -0.7603 -0.0566 -0.6471
vn -0.6032 0.1178 -0.7889
vn -0.3610 0.3513 -0.8639
vn 0.2770 0.7404 -0.6124
vn 0.0095 0.5003 -0.8658
vn 0.1571 0.6383 -0.7536
vn 0.5805 0.7778 -0.2407
vn 0.7026 0.6617 -0.2618
vn 0.1679 0.8292 -0.5331
vn 0.4155 -0.5492 -0.7251
vn 0.3763 -0.4484 -0.8108
vn -0.5746 -0.0439 -0.8173
vn -0.2369 -0.1783 -0.9550
vn 0.1788 -0.3174 -0.9313
vn 0.4199 -0.4159 -0.8067
vn 0.7657 -0.3678 -0.5277
vn 0.5696 -0.3701 -0.7338
vn 0.4738 -0.2576 -0.8421
vn 0.0966 -0.1648 -0.9816
vn 0.8460 -0.2620 -0.4644
vn -0.5409 -0.0291 -0.8406
vn -0.2437 -0.0337 -0.9693
vn -0.5724 0.0327 -0.8193
vn -0.2322 0.0902 -0.9685
vn -0.5752 0.0743 -0.8146
vn -0.2693 0.1905 -0.9440
vn 0.4578 0.3088 -0.8337
vn -0.3431 0.2748 -0.8982
vn 0.3726 0.5301 -0.7617
vn 0.0895 0.3176 -0.9440
vn 0.4309 0.4484 -0.7831
vn 0.7509 0.5384 -0.3824
vn 0.4293 0.6572 -0.6195
vn -0.8633 -0.2501 0.4384
vn -0.8110 -0.3368 0.4784
vn -0.8040 -0.4518 0.3867
vn -0.9263 -0.1788 -0.3316
vn -0.4633 -0.3340 0.8209
vn 0.2151 -0.0363 -0.9759
vn 0.5015 -0.1543 -0.8513
vn 0.5869 0.0027 -0.8097
vn -0.8669 -0.1125 0.4855
vn -0.9871 0.0075 0.1598
vn -0.9819 -0.1612 0.0992
vn -0.5090 -0.1217 0.8521
vn -0.9686 -0.0539 -0.2427
vn 0.8007 -0.1114 -0.5886
vn 0.2752 0.1386 -0.9514
vn 0.5916 0.0898 -0.8012
vn -0.8200 0.0134 0.5723
vn -0.8696 0.1230 0.4783
vn -0.9800 0.1666 0.1088
vn -0.9533 0.0742 -0.2927
vn -0.7958 0.0346 -0.6045
vn -0.5196 0.2648 0.8124
vn 0.6045 0.2264 -0.7638
vn -0.8457 0.2633 0.4641
vn -0.9716 0.2334 0.0401
vn -0.8573 0.3163 0.4062
vn -0.9303 0.1537 -0.3331
vn -0.9260 0.3515 0.1376
vn -0.7531 0.4038 0.5194
vn -0.6887 -0.6879 0.2292
vn -0.3470 -0.6535 0.6727
vn -0.9448 -0.3214 0.0639
vn -0.7757 -0.5222 0.3543
vn -0.8855 -0.2896 -0.3633
vn -0.7105 -0.6463 0.2784
vn -0.8695 -0.4940 -0.0011
vn -0.8299 -0.3447 -0.4387
vn -0.8133 -0.0247 -0.5813
vn -0.7794 -0.0486 -0.6246
vn -0.7226 0.4980 0.4795
vn -0.9212 0.2224 -0.3191
vn -0.8980 0.4293 0.0966
vn -0.7597 0.5478 0.3503
vn -0.8699 0.4883 -0.0695
vn -0.7719 0.0725 -0.6316
vn -0.8759 0.2681 -0.4011
vn -0.7354 0.5943 0.3254
vn -0.6905 0.6813 0.2430
vn -0.7748 -0.6125 -0.1569
vn -0.6287 -0.7441 0.2261
vn -0.5545 -0.8194 0.1455
vn -0.7425 -0.1438 -0.6542
vn -0.6600 -0.7176 -0.2222
vn -0.1493 -0.8219 0.5497
vn -0.7725 -0.0797 -0.6300
vn -0.6082 0.0390 -0.7928
vn -0.6268 0.0797 -0.7751
vn -0.3122 0.2284 -0.9222
vn 0.0214 0.3427 -0.9392
vn 0.4076 0.5154 -0.7538
vn 0.7520 0.5111 -0.4162
vn 0.3393 0.1104 -0.9342
vn 0.1611 0.1531 -0.9750
vn 0.5710 0.2637 -0.7775
vn 0.6233 0.0932 -0.7764
vn 0.5663 0.0202 -0.8240
vn 0.4947 0.3396 -0.8000
vn -0.6010 -0.0328 -0.7986
vn 0.0181 -0.0160 -0.9997
vn 0.2015 -0.0516 -0.9781
vn 0.6227 -0.1464 -0.7687
vn 0.5628 -0.2307 -0.7937
vn 0.1434 -0.2674 -0.9528
vn 0.8732 -0.2326 -0.4283
vn -0.6369 -0.0691 -0.7678
vn -0.2700 -0.1955 -0.9428
vn 0.5041 -0.3716 -0.7796
vn -0.3299 -0.2830 -0.9006
vn 0.7604 -0.4674 -0.4510
vn -0.8396 0.3600 -0.4067
vn -0.6732 0.7121 0.1995
vn -0.7530 0.6568 -0.0395
vn -0.5542 0.7939 0.2503
vn -0.7379 0.1499 -0.6580
vn -0.7693 0.4477 -0.4558
vn -0.2095 0.7178 0.6640
vn -0.3149 0.8002 0.5104
vn -0.7260 0.6736 -0.1383
vn -0.4921 0.8585 0.1443
vn -0.1122 0.8442 0.5241
vn -0.7449 -0.4650 -0.4785
vn -0.3909 0.3547 -0.8493
vn -0.0194 0.7310 -0.6821
vn 0.2277 0.8760 -0.4251
vn 0.4592 0.6073 -0.6484
vn 0.0394 0.5713 -0.8198
vn 0.3576 0.7274 -0.5857
vn 0.3272 0.8119 -0.4835
vn 0.6141 0.6152 -0.4943
vn 0.5839 0.7400 -0.3338
vn 0.5086 -0.4489 -0.7347
vn 0.3669 -0.5748 -0.7314
vn 0.0238 -0.4392 -0.8981
vn 0.4319 -0.7002 -0.5685
vn -0.4078 -0.4134 -0.8142
vn 0.0084 -0.6489 -0.7608
vn 0.2721 -0.8265 -0.4929
vn 0.3125 -0.9259 -0.2121
vn 0.1109 -0.8442 -0.5244
vn -0.3877 -0.5100 -0.7678
vn 0.6098 -0.7078 -0.3566
vn 0.5048 -0.8237 -0.2583
vn -0.6519 0.7351 -0.1859
vn -0.7342 0.4707 -0.4892
vn -0.4595 0.8859 0.0634
vn -0.5992 0.7445 -0.2946
vn -0.3836 0.9213 0.0644
vn -0.7101 0.1386 -0.6904
vn -0.6579 0.1134 -0.7445
vn -0.4160 0.4679 -0.7798
vn -0.1853 0.7532 -0.6312
vn 0.0443 0.9264 -0.3739
vn -0.5316 0.5095 -0.6766
vn -0.3467 0.7507 -0.5624
vn -0.1012 0.9254 -0.3653
vn 0.4192 0.8810 -0.2193
vn 0.2381 -0.9286 -0.2846
vn -0.2494 -0.8061 -0.5366
vn 0.0137 -0.9513 -0.3079
vn 0.3288 -0.9339 -0.1407
vn -0.4923 -0.4939 -0.7167
vn -0.6703 -0.0983 -0.7356
vn -0.6607 0.4716 -0.5840
vn -0.3446 0.9377 -0.0449
vn -0.4978 0.7745 -0.3904
vn -0.2565 0.9599 -0.1133
vn -0.6750 0.1604 -0.7202
vn 0.0775 0.9612 0.2648
vn -0.6908 0.1489 -0.7076
vn -0.1005 0.9651 -0.2420
vn -0.6127 0.5107 -0.6031
vn -0.4157 0.8277 -0.3771
vn -0.1744 0.9831 -0.0563
vn 0.2502 0.9629 0.1010
vn -0.5887 -0.4851 -0.6466
vn -0.0475 -0.9872 -0.1521
vn -0.3727 -0.8391 -0.3963
vn -0.1831 -0.9817 -0.0518
vn -0.5798 0.4993 -0.6438
vn -0.3757 0.8287 -0.4149
vn -0.0748 0.9876 -0.1380
vn -0.5390 0.8050 -0.2478
vn -0.5818 0.7698 -0.2625
vn -0.3140 0.9457 0.0839
vn -0.7112 0.5461 -0.4428
vn 0.0144 0.9593 0.2821
vn -0.5441 -0.8103 -0.2178
vn -0.2675 -0.9590 0.0934
vn -0.5229 -0.7821 -0.3389
vn -0.7029 -0.1313 -0.6991
vn -0.6639 -0.4825 -0.5713
vn -0.1308 0.9443 -0.3021
vn -0.5295 0.4689 -0.7069
vn -0.6486 0.1465 -0.7469
vn -0.2811 0.8108 -0.5134
vn 0.2590 0.9656 -0.0242
vn -0.4746 -0.4212 -0.7729
vn -0.6378 0.7470 -0.1877
vn -0.4422 0.8797 0.1750
vn -0.6465 0.0839 -0.7583
vn -0.7551 0.4282 -0.4964
vn -0.1579 0.9325 0.3248
vn -0.4510 -0.8925 0.0093
vn -0.7306 -0.4575 -0.5068
vn -0.4061 -0.8982 0.1685
vn -0.6496 -0.7463 -0.1453
vn -0.7637 -0.4642 -0.4488
vn 0.0263 0.9576 -0.2870
vn 0.0823 0.9227 -0.3767
vn -0.2410 0.7537 -0.6114
vn -0.4811 0.4593 -0.7468
vn 0.3751 0.9253 -0.0558
vn -0.6111 -0.0670 -0.7887
vn -0.1259 -0.7490 -0.6505
vn 0.1928 -0.8826 -0.4288
vn -0.2314 -0.2865 -0.9297
vn 0.2788 -0.5982 -0.7513
vn 0.2755 -0.0635 -0.9592
vn -0.7735 0.4310 -0.4648
vn -0.4626 0.2492 -0.8508
vn -0.0039 0.2588 -0.9659
vn -0.6896 0.7176 -0.0975
vn -0.4934 0.8435 0.2123
vn -0.6314 0.7753 0.0184
vn -0.5800 0.6362 -0.5088
vn -0.4321 0.8922 -0.1312
vn -0.2307 0.8710 0.4338
vn -0.0580 -0.8720 -0.4861
vn -0.3297 -0.9408 0.0791
vn 0.5344 -0.8339 -0.1379
vn -0.5564 -0.8290 0.0562
vn -0.7303 -0.4435 -0.5195
vn -0.6519 -0.0911 -0.7528
vn -0.3326 -0.5504 -0.7658
vn -0.3816 -0.1395 -0.9137
vn 0.2917 -0.2116 -0.9328
vn 0.5853 -0.3070 -0.7504
vn 0.5963 0.1598 -0.7867
vn -0.6193 0.0920 -0.7797
vn 0.1036 0.3196 -0.9419
vn 0.1136 0.9035 -0.4132
vn -0.3249 0.3274 -0.8873
vn 0.2853 0.6841 -0.6713
vn 0.6238 0.7615 -0.1763
vn 0.7174 0.4456 -0.5356
vn 0.5942 -0.1960 -0.7801
vn 0.8182 -0.1929 -0.5416
vn 0.5892 0.1768 -0.7884
vn 0.0130 0.7356 -0.6773
vn 0.3642 0.3945 0.8436
vn 0.6206 0.0871 0.7793
vn -0.1449 0.7190 0.6798
vn 0.3805 0.8483 0.3682
vn 0.7111 0.0297 0.7025
vn 0.6674 0.1078 0.7368
vn 0.4071 0.9065 0.1121
vn 0.8929 0.0912 0.4409
vn 0.7509 0.3765 0.5427
vn 0.7352 0.5041 -0.4531
vn 0.9603 0.2790 0.0066
vn 0.8936 -0.1107 0.4349
vn 0.7069 -0.0262 0.7068
vn 0.9633 -0.2681 -0.0151
vn 0.2393 -0.9430 -0.2312
vn 0.4386 -0.8927 0.1032
vn 0.7406 -0.2435 0.6263
vn 0.7295 -0.5278 0.4350
vn 0.6962 0.1567 0.7006
vn 0.1225 0.9873 0.1013
vn 0.2180 -0.9264 0.3070
vn 0.6638 -0.1267 0.7371
vn 0.5322 -0.5578 0.6368
vn 0.6151 0.5538 0.5612
vn 0.1412 0.9739 0.1777
vn 0.5644 0.4420 0.6972
vn 0.3650 0.8143 0.4514
vn 0.1509 0.8212 0.5503
vn 0.2892 -0.7244 0.6258
vn 0.5120 -0.4435 0.7356
vn 0.3171 0.9366 0.1490
vn 0.7292 -0.1421 0.6694
vn 0.6418 0.1077 0.7593
vn 0.4311 0.4115 0.8030
vn 0.1560 0.6557 0.7388
vn 0.3979 -0.4183 0.8165
vn 0.0534 -0.6781 0.7331
vn 0.6430 -0.1088 0.7581
vn -0.2765 -0.7648 0.5819
vn 0.7252 0.1301 0.6761
vn 0.7209 0.4495 0.5274
vn 0.7951 -0.4477 0.4091
vn 0.5264 -0.8342 -0.1645
vn 0.7198 -0.6828 0.1253
vn 0.8169 -0.2569 0.5164
vn 0.6198 0.0639 0.7822
vn 0.3078 0.3958 0.8652
vn -0.0639 0.5682 0.8204
vn 0.2749 0.2205 0.9359
vn -0.0775 0.3587 0.9302
vn -0.4869 0.3590 0.7963
vn -0.4262 -0.5371 0.7279
vn -0.1503 -0.3450 0.9265
vn 0.3843 -0.2456 0.8899
vn -0.2951 -0.6739 0.6774
vn 0.0303 -0.5429 0.8393
vn 0.6168 -0.0722 0.7838
vn 0.5215 0.8520 -0.0455
vn 0.5910 0.7760 0.2202
vn 0.6703 -0.6732 -0.3122
vn 0.5938 -0.7730 -0.2231
vn 0.8073 -0.5864 0.0671
vn 0.7817 -0.0642 0.6204
vn 0.8765 -0.3636 0.3155
vn 0.8559 -0.5171 0.0010
vn -0.1693 0.2038 0.9643
vn -0.4852 0.0217 0.8742
vn -0.0701 0.0159 0.9974
vn 0.5954 0.0242 0.8030
vn 0.2966 0.0445 0.9540
vn -0.5728 -0.1714 0.8016
vn -0.1934 -0.1557 0.9687
vn 0.2748 -0.0769 0.9584
vn 0.6032 -0.0267 0.7971
vn 0.2606 -0.2021 0.9441
vn 0.7665 0.0906 0.6358
vn 0.8062 0.3463 0.4797
vn 0.6696 0.7089 -0.2216
vn 0.5576 0.8239 -0.1009
vn 0.7685 0.6213 0.1531
vn 0.7113 -0.5866 -0.3873
vn 0.7859 -0.4736 -0.3976
vn 0.9041 -0.2509 0.3459
vn 0.9007 -0.4340 -0.0195
vn 0.9441 -0.1555 0.2906
vn 0.8034 -0.0327 0.5945
vn 0.8665 -0.4016 -0.2966
vn 0.9437 -0.3045 -0.1291
vn 0.9313 -0.1741 -0.3198
vn 0.9476 -0.0234 0.3185
vn 0.7820 0.0515 0.6211
vn 0.9240 0.0690 0.3761
vn 0.8196 0.3472 -0.4557
vn 0.9270 0.1922 0.3219
vn 0.8865 0.2978 0.3542
vn 0.9461 0.3195 -0.0523
vn 0.8107 0.4541 -0.3694
vn 0.8579 0.5118 -0.0459
vn -0.4968 -0.2561 0.8292
vn -0.1123 -0.1696 0.9791
vn -0.6147 0.0002 0.7888
vn 0.9817 -0.0467 -0.1845
vn 0.8306 0.0119 -0.5568
vn -0.1948 0.0057 0.9808
vn 0.2170 -0.0546 0.9746
vn 0.8759 0.1121 -0.4692
vn -0.4686 0.1158 0.8758
vn 0.9887 0.1318 -0.0715
vn -0.1500 0.1875 0.9707
vn 0.2797 0.0686 0.9576
vn 0.7796 0.2257 -0.5843
vn -0.4578 0.3530 0.8160
vn 0.8781 0.2715 -0.3940
vn 0.2632 0.2132 0.9409
vn -0.3858 -0.5375 0.7499
vn -0.4054 -0.4590 0.7906
vn 0.0009 -0.4845 0.8748
vn 0.3567 -0.2739 0.8932
vn 0.5636 -0.0921 0.8209
vn -0.0711 -0.3210 0.9444
vn 0.2856 -0.1800 0.9413
vn 0.5672 -0.0271 0.8231
vn 0.7585 0.0327 0.6509
vn 0.7165 -0.0024 0.6975
vn 0.5792 0.0483 0.8138
vn -0.5231 0.4965 0.6927
vn -0.1518 0.3935 0.9067
vn 0.5711 0.0930 0.8156
vn -0.2744 0.5134 0.8131
vn 0.3148 0.2778 0.9076
vn -0.3869 0.5944 0.7050
vn -0.3099 0.6834 0.6610
vn 0.0326 0.4922 0.8699
vn -0.0928 -0.6200 0.7791
vn -0.2718 -0.7351 0.6211
vn 0.0964 -0.6313 0.7695
vn 0.3752 -0.3670 0.8512
vn 0.9139 0.2476 0.3216
vn 0.9321 0.3446 -0.1114
vn 0.8827 0.4696 0.0148
vn 0.8197 0.1121 -0.5617
vn 0.7708 0.3552 -0.5289
vn 0.8144 0.2573 -0.5201
vn 0.9609 0.0724 0.2671
vn 0.9759 0.1573 -0.1515
vn 0.8117 0.0105 -0.5840
vn 0.8253 -0.0493 0.5626
vn 0.9869 -0.0165 0.1603
vn 0.9719 -0.0139 -0.2349
vn 0.9551 -0.2941 -0.0352
vn 0.7582 -0.1470 -0.6352
vn 0.9572 -0.2776 -0.0814
vn 0.8078 -0.3614 -0.4656
vn 0.7449 -0.0600 0.6644
vn 0.8869 -0.2631 0.3797
vn 0.3707 0.3592 0.8565
vn 0.6349 0.0996 0.7662
vn 0.1035 0.6662 0.7385
vn 0.5980 -0.1542 0.7865
vn 0.4423 -0.4119 0.7967
vn 0.7021 0.0819 0.7074
vn 0.5163 0.8114 -0.2738
vn 0.7426 0.0889 0.6638
vn 0.6535 0.7454 0.1316
vn 0.8510 0.3492 0.3923
vn 0.7819 0.6230 -0.0214
vn 0.7079 -0.5861 -0.3942
vn 0.8955 -0.4434 -0.0383
vn 0.8308 -0.3866 0.4004
vn 0.7242 -0.0888 0.6838
vn 0.8181 -0.5746 -0.0227
vn 0.7391 -0.6714 0.0548
vn 0.7490 -0.4414 0.4941
vn 0.6526 0.1334 0.7459
vn -0.0038 0.9447 0.3279
vn 0.4899 0.3627 0.7927
vn 0.4382 0.4875 0.7552
vn 0.1497 0.7456 0.6493
vn -0.0984 0.9041 0.4158
vn 0.2481 0.7640 0.5956
vn 0.7623 0.4453 0.4697
vn 0.4689 0.8806 0.0680
vn 0.6744 0.4240 0.6045
vn 0.4916 -0.8530 -0.1756
vn 0.3099 -0.9508 -0.0054
vn 0.6367 -0.7535 0.1638
vn 0.5377 -0.7748 0.3326
vn 0.6992 -0.1060 0.7070
vn 0.7075 -0.4423 0.5512
vn 0.5493 0.4696 0.6912
vn 0.3607 0.7847 0.5041
vn 0.6886 0.1651 0.7061
vn 0.6732 0.1027 0.7323
vn 0.0708 0.9862 0.1494
vn 0.5169 0.7730 0.3678
vn 0.3432 0.8156 0.4659
vn 0.0438 -0.9835 0.1758
vn 0.0954 -0.9954 -0.0019
vn 0.3116 -0.8996 0.3058
vn 0.5760 -0.5552 0.6000
vn 0.6070 0.4980 0.6193
vn 0.3831 0.8409 0.3824
vn 0.5967 0.4556 0.6606
vn 0.5106 0.4800 0.7134
vn 0.6500 0.1269 0.7492
vn -0.0861 -0.9468 0.3100
vn 0.2049 -0.7893 0.5789
vn 0.2979 -0.8060 0.5116
vn 0.5459 -0.4817 0.6856
vn 0.6612 -0.1380 0.7374
vn 0.7100 0.1382 0.6905
vn 0.6677 0.4853 0.5646
vn 0.4836 0.8277 0.2845
vn 0.6067 0.7277 0.3200
vn 0.1198 0.9898 0.0772
vn 0.2704 0.9554 0.1186
vn 0.7199 -0.1520 0.6773
vn 0.7609 -0.0729 0.6448
vn 0.2397 0.7874 0.5679
vn 0.4438 0.4544 0.7724
vn 0.1239 0.7407 0.6603
vn -0.1998 -0.8944 0.4001
vn -0.0188 -0.8846 0.4660
vn 0.5003 -0.4271 0.7532
vn 0.6452 -0.1179 0.7549
vn 0.0916 -0.7685 0.6333
vn 0.4860 0.8659 0.1188
vn 0.7193 0.4504 0.5289
vn 0.5060 -0.8585 -0.0835
vn 0.5665 -0.8238 0.0195
vn 0.9103 -0.3026 0.2825
vn 0.7569 -0.6095 -0.2360
vn 0.9811 -0.0787 -0.1768
vn 0.7249 0.0971 0.6820
vn 0.9747 0.2206 0.0355
vn -0.1101 0.9372 0.3309
vn -0.0996 0.8033 0.5872
vn 0.5558 0.4333 0.7095
vn 0.9177 0.1512 0.3673
vn 0.4357 0.6476 0.6251
vn 0.8149 -0.3365 -0.4719
vn 0.7263 -0.1046 0.6794
vn -0.0557 -0.8106 0.5829
vn 0.3700 -0.5106 0.7761
vn 0.2789 -0.9139 0.2951
vn 0.4903 -0.4739 0.7315
vn 0.8934 -0.1819 0.4108
vn 0.8738 -0.4579 0.1639
vn 0.8265 0.1168 -0.5508
vn 0.7486 0.1144 0.6530
vn 0.8871 0.3081 0.3436
vn 0.9259 0.3714 -0.0686
vn 0.6102 0.7465 0.2652
vn 0.4174 0.9057 -0.0734
vn 0.8080 0.1963 -0.5555
vn 0.6139 0.7870 0.0621
s 1
usemtl Red
f 11//7 8//4 13//9
f 12//8 14//10 9//5
f 8//4 11//7 16//12
f 11//7 13//9 18//14
f 19//15 17//13 14//10
f 13//9 17//13 20//16
f 16//12 18//14 21//17
f 21//17 18//14 20//16
f 21//17 20//16 22//18
f 17//13 19//15 25//21
f 24//20 23//19 29//25
f 27//23 20//16 24//20
f 29//25 30//26 31//27
f 37//33 36//32 327//323
f 33//29 36//32 38//34
f 39//35 37//33 327//323
f 40//36 43//39 41//37
f 39//35 45//41 37//33
f 43//39 42//38 47//43
f 44//40 50//46 47//43
f 49//45 47//43 50//46
f 82//78 49//45 54//50
f 10//6 8//4 55//51
f 56//52 55//51 57//53
f 55//51 16//12 62//58
f 61//57 60//56 63//59
f 62//58 16//12 21//17
f 64//60 62//58 22//18
f 22//18 27//23 65//61
f 63//59 64//60 66//62
f 64//60 65//61 66//62
f 27//23 28//24 65//61
f 65//61 28//24 67//63
f 68//64 34//30 35//31
f 69//65 68//64 70//66
f 41//37 35//31 40//36
f 70//66 35//31 41//37
f 69//65 70//66 73//69
f 73//69 72//68 52//48
f 76//72 47//43 49//45
f 78//74 73//69 52//48
f 75//71 74//70 77//73
f 82//78 76//72 49//45
f 77//73 78//74 80//76
f 81//77 78//74 79//75
f 79//75 76//72 82//78
f 84//80 10//6 56//52
f 85//81 9//5 10//6
f 83//79 9//5 86//82
f 83//79 87//83 12//8
f 88//84 90//86 86//82
f 88//84 85//81 84//80
f 95//91 92//88 94//90
f 96//92 98//94 97//93
f 97//93 101//97 95//91
f 465//461 98//94 99//95
f 104//100 101//97 97//93
f 93//89 92//88 15//11
f 106//102 94//90 92//88
f 107//103 99//95 96//92
f 107//103 94//90 108//104
f 106//102 114//110 108//104
f 113//109 109//105 107//103
f 109//105 113//109 110//106
f 470//466 109//105 110//106
f 115//111 87//83 83//79
f 101//97 116//112 95//91
f 102//98 117//113 101//97
f 119//115 471//467 118//114
f 120//116 113//109 114//110
f 121//117 122//118 90//86
f 92//88 19//15 15//11
f 116//112 100//96 92//88
f 123//119 117//113 102//98
f 123//119 124//120 117//113
f 128//124 118//114 127//123
f 118//114 113//109 120//116
f 93//89 148//144 106//102
f 127//123 120//116 130//126
f 25//21 26//22 23//19
f 133//129 132//128 124//120
f 134//130 132//128 133//129
f 132//128 135//131 100//96
f 135//131 131//127 100//96
f 134//130 136//132 132//128
f 139//135 137//133 133//129
f 140//136 130//126 144//140
f 140//136 144//140 143//139
f 176//172 144//140 148//144
f 145//141 141//137 146//142
f 148//144 130//126 120//116
f 150//146 115//111 122//118
f 149//145 150//146 122//118
f 152//148 149//145 153//149
f 179//175 129//125 115//111
f 151//147 115//111 150//146
f 30//26 26//22 156//152
f 157//153 26//22 155//151
f 159//155 134//130 137//133
f 159//155 158//154 134//130
f 160//156 159//155 137//133
f 159//155 160//156 161//157
f 154//150 135//131 158//154
f 158//154 159//155 161//157
f 163//159 158//154 161//157
f 164//160 160//156 137//133
f 166//162 161//157 165//161
f 167//163 162//158 199//195
f 168//164 172//168 507//503
f 172//168 169//165 200//196
f 169//165 170//166 203//199
f 172//168 200//196 173//169
f 175//171 142//138 174//170
f 174//170 143//139 171//167
f 143//139 144//140 171//167
f 168//164 174//170 170//166
f 204//200 171//167 144//140
f 494//490 142//138 175//171
f 177//173 205//201 129//125
f 205//201 204//200 176//172
f 205//201 176//172 129//125
f 180//176 151//147 152//148
f 181//177 178//174 151//147
f 182//178 151//147 180//176
f 212//208 182//178 180//176
f 185//181 156//152 157//153
f 185//181 157//153 186//182
f 184//180 188//184 155//151
f 186//182 190//186 191//187
f 189//185 187//183 191//187
f 193//189 154//150 158//154
f 192//188 154//150 193//189
f 195//191 167//163 196//192
f 195//191 194//190 163//159
f 192//188 193//189 194//190
f 200//196 201//197 196//192
f 197//193 195//191 196//192
f 202//198 197//193 201//197
f 196//192 167//163 522//518
f 200//196 196//192 526//522
f 204//200 202//198 203//199
f 204//200 192//188 202//198
f 228//224 192//188 204//200
f 228//224 204//200 205//201
f 206//202 205//201 178//174
f 181//177 206//202 178//174
f 208//204 206//202 181//177
f 209//205 208//204 181//177
f 231//227 205//201 206//202
f 211//207 236//232 207//203
f 212//208 181//177 182//178
f 191//187 190//186 189//185
f 189//185 190//186 213//209
f 214//210 190//186 216//212
f 215//211 216//212 184//180
f 214//210 217//213 218//214
f 219//215 214//210 218//214
f 220//216 218//214 217//213
f 221//217 220//216 217//213
f 221//217 217//213 222//218
f 219//215 537//533 214//210
f 224//220 225//221 215//211
f 224//220 215//211 226//222
f 227//223 224//220 226//222
f 226//222 192//188 228//224
f 229//225 226//222 228//224
f 233//229 227//223 229//225
f 233//229 230//226 251//247
f 208//204 232//228 233//229
f 229//225 228//224 231//227
f 552//548 234//230 232//228
f 234//230 548//544 230//226
f 236//232 232//228 209//205
f 236//232 235//231 232//228
f 238//234 268//264 239//235
f 237//233 247//243 268//264
f 238//234 239//235 241//237
f 243//239 222//218 242//238
f 245//241 247//243 237//233
f 245//241 237//233 248//244
f 249//245 247//243 246//242
f 246//242 247//243 245//241
f 223//219 221//217 243//239
f 250//246 223//219 243//239
f 244//240 250//246 243//239
f 251//247 225//221 227//223
f 251//247 244//240 242//238
f 253//249 246//242 245//241
f 246//242 253//249 254//250
f 255//251 246//242 254//250
f 255//251 256//252 246//242
f 256//252 274//270 249//245
f 230//226 259//255 251//247
f 259//255 561//557 252//248
f 261//257 263//259 255//251
f 566//562 561//557 259//255
f 259//255 230//226 566//562
f 271//267 266//262 267//263
f 269//265 268//264 272//268
f 269//265 272//268 271//267
f 270//266 272//268 268//264
f 271//267 272//268 266//262
f 274//270 275//271 240//236
f 275//271 291//287 270//266
f 281//277 257//253 263//259
f 264//260 263//259 261//257
f 264//260 265//261 276//272
f 277//273 281//277 263//259
f 280//276 278//274 279//275
f 280//276 282//278 277//273
f 282//278 281//277 277//273
f 581//577 276//272 265//261
f 280//276 283//279 284//280
f 283//279 279//275 586//582
f 266//262 272//268 285//281
f 266//262 285//281 286//282
f 273//269 327//323 285//281
f 288//284 327//323 273//269
f 289//285 285//281 327//323
f 266//262 286//282 590//586
f 291//287 288//284 273//269
f 293//289 288//284 291//287
f 293//289 291//287 292//288
f 294//290 293//289 292//288
f 292//288 291//287 275//271
f 294//290 292//288 298//294
f 299//295 300//296 303//299
f 302//298 301//297 299//295
f 295//291 294//290 299//295
f 303//299 295//291 299//295
f 304//300 275//271 281//277
f 304//300 298//294 292//288
f 305//301 298//294 304//300
f 306//302 298//294 305//301
f 307//303 302//298 306//302
f 308//304 307//303 306//302
f 309//305 308//304 306//302
f 601//597 596//592 302//298
f 308//304 310//306 307//303
f 312//308 309//305 305//301
f 313//309 308//304 309//305
f 309//305 339//335 313//309
f 315//311 608//604 337//333
f 311//307 314//310 304//300
f 317//313 280//276 284//280
f 316//312 281//277 282//278
f 320//316 281//277 316//312
f 319//315 318//314 317//313
f 323//319 319//315 317//313
f 319//315 324//320 318//314
f 324//320 321//317 316//312
f 325//321 324//320 319//315
f 288//284 39//35 327//323
f 290//286 32//28 34//30
f 332//328 294//290 295//291
f 296//292 332//328 295//291
f 328//324 293//289 294//290
f 331//327 333//329 332//328
f 329//325 328//324 332//328
f 334//330 329//325 332//328
f 333//329 331//327 335//331
f 339//335 337//333 313//309
f 340//336 338//334 342//338
f 340//336 342//338 343//339
f 343//339 342//338 345//341
f 347//343 622//618 338//334
f 348//344 340//336 343//339
f 324//320 350//346 321//317
f 351//347 349//345 325//321
f 351//347 352//348 349//345
f 354//350 320//316 350//346
f 329//325 356//352 328//324
f 357//353 356//352 329//325
f 329//325 330//326 357//353
f 359//355 355//351 356//352
f 360//356 356//352 357//353
f 358//354 360//356 357//353
f 358//354 376//372 360//356
f 345//341 342//338 346//342
f 345//341 346//342 364//360
f 363//359 364//360 365//361
f 345//341 363//359 366//362
f 346//342 367//363 364//360
f 344//340 367//363 346//342
f 368//364 344//340 311//307
f 368//364 311//307 354//350
f 630//626 370//366 353//349
f 369//365 354//350 350//346
f 352//348 369//365 350//346
f 371//367 352//348 370//366
f 372//368 371//367 370//366
f 375//371 288//284 355//351
f 360//356 377//373 359//355
f 381//377 383//379 364//360
f 397//393 383//379 381//377
f 373//369 368//364 354//350
f 386//382 385//381 369//365
f 51//47 45//41 288//284
f 379//375 388//384 378//374
f 378//374 389//385 377//373
f 390//386 388//384 379//375
f 388//384 389//385 378//374
f 652//648 384//380 394//390
f 384//380 383//379 395//391
f 396//392 381//377 368//364
f 384//380 395//391 393//389
f 401//397 385//381 386//382
f 399//395 400//396 373//369
f 387//383 414//410 398//394
f 400//396 368//364 373//369
f 387//383 398//394 386//382
f 405//401 404//400 390//386
f 406//402 375//371 389//385
f 391//387 406//402 389//385
f 404//400 407//403 391//387
f 394//390 393//389 409//405
f 409//405 393//389 412//408
f 410//406 393//389 397//393
f 396//392 439//435 410//406
f 416//412 399//395 401//397
f 419//415 51//47 375//371
f 54//50 420//416 421//417
f 82//78 54//50 421//417
f 419//415 422//418 403//399
f 422//418 423//419 420//416
f 406//402 422//418 419//415
f 424//420 423//419 422//418
f 429//425 428//424 405//401
f 428//424 425//421 407//403
f 430//426 431//427 428//424
f 431//427 426//422 425//421
f 432//428 430//426 429//425
f 691//687 432//428 429//425
f 426//422 427//423 422//418
f 431//427 427//423 426//422
f 432//428 431//427 430//426
f 435//431 434//430 436//432
f 439//435 413//409 410//406
f 411//407 435//431 677//673
f 440//436 412//408 438//434
f 439//435 441//437 438//434
f 435//431 437//433 440//436
f 441//437 440//436 438//434
f 442//438 434//430 440//436
f 443//439 434//430 442//438
f 443//439 436//432 434//430
f 448//444 439//435 445//441
f 446//442 440//436 441//437
f 446//442 442//438 440//436
f 696//692 443//439 444//440
f 446//442 444//440 442//438
f 448//444 445//441 417//413
f 416//412 449//445 448//444
f 449//445 446//442 448//444
f 452//448 423//419 424//420
f 421//417 423//419 687//683
f 452//448 687//683 423//419
f 454//450 453//449 452//448
f 427//423 454//450 424//420
f 432//428 427//423 431//427
f 455//451 454//450 427//423
f 455//451 432//428 691//687
f 457//453 59//55 61//57
f 58//54 59//55 456//452
f 58//54 84//80 57//53
f 91//87 88//84 458//454
f 458//454 84//80 58//54
f 456//452 458//454 58//54
f 456//452 459//455 458//454
f 61//57 460//456 457//453
f 456//452 457//453 479//475
f 460//456 61//57 461//457
f 465//461 104//100 98//94
f 460//456 464//460 463//459
f 466//462 463//459 464//460
f 103//99 466//462 465//461
f 462//458 465//461 466//462
f 111//107 103//99 105//101
f 457//453 460//456 468//464
f 467//463 468//464 463//459
f 111//107 466//462 103//99
f 467//463 466//462 469//465
f 112//108 109//105 470//466
f 112//108 469//465 111//107
f 471//467 112//108 470//466
f 467//463 469//465 473//469
f 468//464 472//468 477//473
f 479//475 457//453 474//470
f 482//478 462//458 464//460
f 480//476 101//97 462//458
f 464//460 460//456 481//477
f 477//473 472//468 478//474
f 457//453 468//464 474//470
f 459//455 456//452 479//475
f 126//122 102//98 480//476
f 125//121 123//119 126//122
f 483//479 126//122 482//478
f 476//472 119//115 484//480
f 478//474 476//472 484//480
f 477//473 478//474 485//481
f 487//483 63//59 66//62
f 482//478 481//477 483//479
f 488//484 461//457 63//59
f 138//134 125//121 483//479
f 490//486 483//479 489//485
f 147//143 142//138 494//490
f 484//480 119//115 145//141
f 484//480 145//141 146//142
f 146//142 147//143 492//488
f 146//142 492//488 484//480
f 477//473 485//481 493//489
f 474//470 493//489 495//491
f 493//489 485//481 491//487
f 486//482 153//149 149//145
f 479//475 153//149 486//482
f 496//492 474//470 495//491
f 514//510 153//149 479//475
f 514//510 479//475 496//492
f 67//63 498//494 499//495
f 487//483 497//493 500//496
f 501//497 487//483 518//514
f 164//160 137//133 139//135
f 503//499 139//135 490//486
f 164//160 139//135 503//499
f 166//162 165//161 503//499
f 503//499 502//498 505//501
f 502//498 501//497 504//500
f 162//158 166//162 506//502
f 199//195 162//158 506//502
f 199//195 506//502 505//501
f 507//503 172//168 173//169
f 507//503 508//504 511//507
f 200//196 526//522 173//169
f 173//169 526//522 508//504
f 509//505 508//504 530//526
f 510//506 494//490 175//171
f 491//487 492//488 511//507
f 512//508 491//487 509//505
f 153//149 183//179 152//148
f 513//509 183//179 514//510
f 514//510 534//530 513//509
f 535//531 534//530 514//510
f 535//531 496//492 532//528
f 516//512 187//183 515//511
f 499//495 498//494 516//512
f 498//494 185//181 516//512
f 517//513 499//495 516//512
f 517//513 516//512 515//511
f 189//185 515//511 187//183
f 518//514 487//483 500//496
f 517//513 515//511 520//516
f 199//195 505//501 521//517
f 521//517 505//501 504//500
f 522//518 199//195 521//517
f 524//520 518//514 541//537
f 526//522 196//192 522//518
f 528//524 527//523 523//519
f 528//524 523//519 525//521
f 529//525 525//521 524//520
f 512//508 530//526 529//525
f 529//525 530//526 528//524
f 512//508 541//537 531//527
f 533//529 211//207 207//203
f 495//491 531//527 532//528
f 535//531 211//207 533//529
f 535//531 553//549 211//207
f 534//530 210//206 212//208
f 210//206 535//531 533//529
f 515//511 189//185 536//532
f 537//533 213//209 214//210
f 500//496 519//515 538//534
f 518//514 500//496 538//534
f 536//532 520//516 515//511
f 519//515 520//516 538//534
f 520//516 536//532 539//535
f 537//533 539//535 536//532
f 541//537 518//514 538//534
f 219//215 543//539 542//538
f 223//219 543//539 219//215
f 540//536 543//539 544//540
f 541//537 540//536 545//541
f 547//543 541//537 545//541
f 531//527 541//537 546//542
f 546//542 547//543 549//545
f 563//559 568//564 551//547
f 531//527 546//542 550//546
f 550//546 549//545 553//549
f 553//549 552//548 235//231
f 551//547 552//548 553//549
f 551//547 548//544 552//548
f 239//235 571//567 241//237
f 248//244 237//233 554//550
f 540//536 544//540 557//553
f 250//246 557//553 544//540
f 560//556 555//551 576//572
f 558//554 250//246 244//240
f 253//249 245//241 556//552
f 253//249 556//552 562//558
f 547//543 557//553 563//559
f 557//553 250//246 558//554
f 557//553 558//554 561//557
f 563//559 557//553 561//557
f 564//560 562//558 559//555
f 559//555 560//556 565//561
f 258//254 254//250 562//558
f 568//564 561//557 566//562
f 260//256 258//254 567//563
f 567//563 258//254 564//560
f 564//560 565//561 569//565
f 575//571 571//567 572//568
f 573//569 572//568 592//588
f 574//570 573//569 592//588
f 577//573 576//572 574//570
f 573//569 575//571 572//568
f 574//570 576//572 573//569
f 577//573 578//574 579//575
f 580//576 565//561 577//573
f 580//576 577//573 579//575
f 569//565 580//576 583//579
f 584//580 581//577 582//578
f 586//582 276//272 581//577
f 569//565 583//579 585//581
f 569//565 585//581 582//578
f 586//582 279//275 276//272
f 588//584 587//583 586//582
f 585//581 583//579 611//607
f 588//584 585//581 611//607
f 590//586 287//283 290//286
f 572//568 589//585 591//587
f 592//588 572//568 591//587
f 614//610 592//588 615//611
f 578//574 618//614 593//589
f 598//594 597//593 303//299
f 597//593 296//292 303//299
f 597//593 297//293 296//292
f 596//592 600//596 598//594
f 594//590 597//593 598//594
f 594//590 598//594 600//596
f 594//590 297//293 597//593
f 307//303 601//597 302//298
f 606//602 601//597 307//303
f 579//575 578//574 602//598
f 602//598 578//574 599//595
f 605//601 602//598 603//599
f 604//600 603//599 600//596
f 600//596 596//592 601//597
f 606//602 604//600 601//597
f 608//604 310//306 313//309
f 609//605 579//575 602//598
f 602//598 605//601 610//606
f 609//605 602//598 610//606
f 608//604 607//603 310//306
f 583//579 579//575 609//605
f 587//583 322//318 284//280
f 326//322 319//315 323//319
f 613//609 322//318 611//607
f 613//609 323//319 322//318
f 613//609 611//607 631//627
f 71//67 615//611 68//64
f 71//67 68//64 69//65
f 617//613 330//326 334//330
f 636//632 618//614 616//612
f 621//617 619//615 617//613
f 336//332 334//330 333//329
f 595//591 593//589 620//616
f 336//332 617//613 334//330
f 607//603 315//311 623//619
f 622//618 623//619 315//311
f 625//621 609//605 610//606
f 627//623 347//343 348//344
f 624//620 641//637 628//624
f 612//608 625//621 629//625
f 326//322 634//630 325//321
f 632//628 326//322 613//609
f 631//627 632//628 613//609
f 632//628 633//629 326//322
f 633//629 634//630 326//322
f 631//627 612//608 629//625
f 635//631 633//629 632//628
f 632//628 631//627 629//625
f 574//570 71//67 616//612
f 358//354 637//633 361//357
f 636//632 616//612 638//634
f 637//633 362//358 619//615
f 650//646 380//376 636//632
f 650//646 636//632 638//634
f 380//376 361//357 637//633
f 639//635 348//344 345//341
f 366//362 363//359 640//636
f 363//359 365//361 640//636
f 641//637 627//623 639//635
f 641//637 639//635 366//362
f 382//378 640//636 365//361
f 625//621 628//624 643//639
f 625//621 643//639 629//625
f 628//624 642//638 644//640
f 643//639 644//640 655//651
f 374//370 370//366 630//626
f 635//631 630//626 634//630
f 635//631 632//628 645//641
f 616//612 71//67 648//644
f 380//376 649//645 376//372
f 649//645 379//375 376//372
f 651//647 649//645 650//646
f 658//654 616//612 648//644
f 653//649 384//380 652//648
f 653//649 640//636 382//378
f 640//636 653//649 654//650
f 644//640 642//638 654//650
f 654//650 653//649 652//648
f 645//641 629//625 647//643
f 646//642 656//652 657//653
f 670//666 372//368 374//370
f 657//653 670//666 374//370
f 71//67 75//71 672//668
f 649//645 392//388 379//375
f 390//386 379//375 392//388
f 658//654 660//656 659//655
f 651//647 674//670 392//388
f 648//644 672//668 660//656
f 654//650 652//648 663//659
f 655//651 654//650 663//659
f 664//660 655//651 663//659
f 665//661 655//651 664//660
f 663//659 652//648 661//657
f 664//660 663//659 662//658
f 643//639 665//661 666//662
f 647//643 643//639 666//662
f 657//653 656//652 667//663
f 402//398 670//666 671//667
f 647//643 666//662 667//663
f 668//664 667//663 669//665
f 670//666 402//398 387//383
f 671//667 670//666 657//653
f 672//668 75//71 77//73
f 659//655 675//671 674//670
f 659//655 660//656 675//671
f 660//656 672//668 673//669
f 433//429 408//404 674//670
f 660//656 673//669 689//685
f 675//671 660//656 689//685
f 677//673 661//657 411//407
f 662//658 661//657 678//674
f 662//658 678//674 681//677
f 679//675 662//658 681//677
f 678//674 677//673 681//677
f 666//662 680//676 705//701
f 668//664 682//678 402//398
f 667//663 666//662 683//679
f 683//679 666//662 705//701
f 669//665 667//663 683//679
f 418//414 682//678 669//665
f 81//77 82//78 685//681
f 81//77 685//681 684//680
f 80//76 687//683 686//682
f 688//684 686//682 687//683
f 690//686 686//682 688//684
f 694//690 686//682 690//686
f 694//690 689//685 686//682
f 691//687 429//425 433//429
f 691//687 433//429 692//688
f 692//688 433//429 676//672
f 676//672 693//689 695//691
f 675//671 689//685 693//689
f 693//689 689//685 694//690
f 695//691 694//690 690//686
f 711//707 691//687 695//691
f 677//673 698//694 681//677
f 699//695 700//696 701//697
f 677//673 435//431 700//696
f 701//697 700//696 703//699
f 702//698 701//697 703//699
f 696//692 700//696 436//432
f 704//700 703//699 696//692
f 706//702 703//699 707//703
f 451//447 704//700 444//440
f 450//446 449//445 447//443
f 450//446 451//447 449//445
f 683//679 706//702 708//704
f 709//705 415//411 418//414
f 415//411 709//705 450//446
f 707//703 450//446 706//702
f 451//447 707//703 704//700
f 710//706 690//686 453//449
f 455//451 710//706 454//450
f 10//6 9//5 8//4
f 8//4 9//5 14//10
f 13//9 8//4 14//10
f 15//11 14//10 12//8
f 16//12 11//7 18//14
f 13//9 14//10 17//13
f 15//11 19//15 14//10
f 18//14 13//9 20//16
f 20//16 17//13 23//19
f 17//13 25//21 23//19
f 23//19 24//20 20//16
f 29//25 28//24 24//20
f 23//19 26//22 29//25
f 29//25 26//22 30//26
f 289//285 33//29 32//28
f 36//32 33//29 289//285
f 327//323 36//32 289//285
f 33//29 34//30 32//28
f 40//36 38//34 36//32
f 37//33 46//42 36//32
f 35//31 33//29 38//34
f 38//34 40//36 35//31
f 42//38 40//36 36//32
f 43//39 40//36 42//38
f 44//40 42//38 36//32
f 46//42 44//40 36//32
f 45//41 46//42 37//33
f 44//40 47//43 42//38
f 46//42 48//44 44//40
f 45//41 48//44 46//42
f 48//44 50//46 44//40
f 45//41 51//47 48//44
f 47//43 52//48 43//39
f 48//44 53//49 50//46
f 50//46 53//49 49//45
f 49//45 53//49 54//50
f 56//52 10//6 55//51
f 55//51 8//4 16//12
f 59//55 58//54 57//53
f 60//56 57//53 55//51
f 59//55 57//53 60//56
f 61//57 59//55 60//56
f 60//56 55//51 62//58
f 64//60 60//56 62//58
f 63//59 60//56 64//60
f 22//18 62//58 21//17
f 27//23 22//18 20//16
f 28//24 27//23 24//20
f 65//61 64//60 22//18
f 67//63 66//62 65//61
f 28//24 29//25 31//27
f 31//27 67//63 28//24
f 35//31 34//30 33//29
f 68//64 35//31 70//66
f 72//68 43//39 52//48
f 73//69 70//66 41//37
f 74//70 69//65 73//69
f 73//69 41//37 72//68
f 72//68 41//37 43//39
f 71//67 69//65 74//70
f 75//71 71//67 74//70
f 52//48 47//43 76//72
f 77//73 74//70 73//69
f 78//74 52//48 76//72
f 77//73 73//69 78//74
f 79//75 78//74 76//72
f 81//77 80//76 78//74
f 81//77 79//75 82//78
f 84//80 85//81 10//6
f 83//79 12//8 9//5
f 12//8 87//83 15//11
f 85//81 86//82 9//5
f 88//84 86//82 85//81
f 90//86 83//79 86//82
f 89//85 90//86 88//84
f 91//87 89//85 88//84
f 87//83 93//89 15//11
f 96//92 95//91 94//90
f 96//92 97//93 95//91
f 99//95 98//94 96//92
f 103//99 465//461 99//95
f 105//101 103//99 99//95
f 98//94 104//100 97//93
f 106//102 92//88 93//89
f 106//102 108//104 94//90
f 107//103 96//92 94//90
f 107//103 105//101 99//95
f 105//101 107//103 109//105
f 112//108 105//101 109//105
f 108//104 113//109 107//103
f 108//104 114//110 113//109
f 95//91 116//112 92//88
f 101//97 117//113 116//112
f 480//476 102//98 101//97
f 470//466 110//106 118//114
f 118//114 110//106 113//109
f 106//102 120//116 114//110
f 90//86 122//118 83//79
f 89//85 121//117 90//86
f 115//111 129//125 87//83
f 117//113 132//128 116//112
f 124//120 132//128 117//113
f 123//119 125//121 124//120
f 102//98 126//122 123//119
f 119//115 118//114 128//124
f 106//102 148//144 120//116
f 127//123 118//114 120//116
f 129//125 148//144 93//89
f 122//118 115//111 83//79
f 129//125 93//89 87//83
f 121//117 149//145 122//118
f 92//88 131//127 19//15
f 100//96 131//127 92//88
f 131//127 25//21 19//15
f 116//112 132//128 100//96
f 136//132 135//131 132//128
f 133//129 137//133 134//130
f 141//137 128//124 127//123
f 140//136 141//137 127//123
f 141//137 140//136 143//139
f 142//138 141//137 143//139
f 145//141 128//124 141//137
f 147//143 146//142 141//137
f 147//143 141//137 142//138
f 130//126 140//136 127//123
f 148//144 144//140 130//126
f 149//145 152//148 150//146
f 151//147 179//175 115//111
f 152//148 151//147 150//146
f 129//125 179//175 177//173
f 155//151 26//22 25//21
f 131//127 155//151 25//21
f 26//22 157//153 156//152
f 156//152 31//27 30//26
f 136//132 158//154 135//131
f 135//131 154//150 131//127
f 134//130 158//154 136//132
f 162//158 163//159 161//157
f 163//159 193//189 158//154
f 165//161 161//157 160//156
f 166//162 162//158 161//157
f 167//163 163//159 162//158
f 168//164 170//166 169//165
f 172//168 168//164 169//165
f 171//167 203//199 170//166
f 143//139 174//170 142//138
f 174//170 171//167 170//166
f 176//172 204//200 144//140
f 175//171 174//170 510//506
f 129//125 176//172 148//144
f 177//173 178//174 205//201
f 179//175 178//174 177//173
f 151//147 178//174 179//175
f 151//147 182//178 181//177
f 152//148 183//179 180//176
f 534//530 212//208 180//176
f 185//181 498//494 156//152
f 184//180 155//151 131//127
f 157//153 155//151 186//182
f 187//183 185//181 186//182
f 187//183 516//512 185//181
f 154//150 184//180 131//127
f 155//151 188//184 186//182
f 186//182 188//184 190//186
f 186//182 191//187 187//183
f 192//188 184//180 154//150
f 163//159 194//190 193//189
f 167//163 195//191 163//159
f 197//193 194//190 195//191
f 198//194 192//188 194//190
f 197//193 198//194 194//190
f 196//192 201//197 197//193
f 197//193 202//198 198//194
f 192//188 198//194 202//198
f 169//165 201//197 200//196
f 203//199 201//197 169//165
f 204//200 203//199 171//167
f 203//199 202//198 201//197
f 181//177 207//203 209//205
f 207//203 236//232 209//205
f 206//202 208//204 231//227
f 181//177 212//208 207//203
f 210//206 207//203 212//208
f 214//210 213//209 190//186
f 213//209 536//532 189//185
f 215//211 184//180 192//188
f 226//222 215//211 192//188
f 216//212 190//186 188//184
f 184//180 216//212 188//184
f 214//210 216//212 217//213
f 216//212 222//218 217//213
f 220//216 219//215 218//214
f 220//216 221//217 219//215
f 221//217 223//219 219//215
f 215//211 225//221 216//212
f 216//212 225//221 222//218
f 227//223 225//221 224//220
f 229//225 227//223 226//222
f 233//229 251//247 227//223
f 230//226 568//564 566//562
f 205//201 231//227 228//224
f 208//204 233//229 231//227
f 231//227 233//229 229//225
f 232//228 234//230 233//229
f 234//230 230//226 233//229
f 209//205 232//228 208//204
f 237//233 268//264 238//234
f 240//236 268//264 247//243
f 554//550 237//233 238//234
f 222//218 243//239 221//217
f 225//221 242//238 222//218
f 242//238 244//240 243//239
f 249//245 240//236 247//243
f 274//270 240//236 249//245
f 251//247 242//238 225//221
f 251//247 252//248 244//240
f 246//242 256//252 249//245
f 256//252 257//253 274//270
f 252//248 558//554 244//240
f 562//558 254//250 253//249
f 251//247 259//255 252//248
f 260//256 255//251 254//250
f 260//256 261//257 255//251
f 262//258 261//257 260//256
f 256//252 263//259 257//253
f 255//251 263//259 256//252
f 258//254 260//256 254//250
f 264//260 261//257 262//258
f 264//260 262//258 265//261
f 268//264 269//265 239//235
f 269//265 271//267 570//566
f 270//266 273//269 272//268
f 291//287 273//269 270//266
f 571//567 239//235 269//265
f 270//266 268//264 240//236
f 275//271 270//266 240//236
f 257//253 275//271 274//270
f 281//277 275//271 257//253
f 264//260 277//273 263//259
f 278//274 277//273 264//260
f 276//272 278//274 264//260
f 279//275 278//274 276//272
f 280//276 277//273 278//274
f 283//279 280//276 279//275
f 285//281 287//283 286//282
f 289//285 287//283 285//281
f 590//586 286//282 287//283
f 273//269 285//281 272//268
f 299//295 294//290 298//294
f 301//297 300//296 299//295
f 295//291 303//299 296//292
f 304//300 292//288 275//271
f 306//302 299//295 298//294
f 306//302 302//298 299//295
f 309//305 306//302 305//301
f 302//298 596//592 301//297
f 311//307 304//300 281//277
f 304//300 312//308 305//301
f 309//305 312//308 339//335
f 312//308 314//310 339//335
f 304//300 314//310 312//308
f 313//309 310//306 308//304
f 337//333 608//604 313//309
f 280//276 316//312 282//278
f 317//313 316//312 280//276
f 318//314 316//312 317//313
f 316//312 321//317 320//316
f 284//280 322//318 317//313
f 324//320 316//312 318//314
f 319//315 326//322 325//321
f 289//285 32//28 287//283
f 32//28 290//286 287//283
f 293//289 355//351 288//284
f 293//289 328//324 355//351
f 328//324 356//352 355//351
f 334//330 330//326 329//325
f 332//328 328//324 294//290
f 296//292 331//327 332//328
f 333//329 334//330 332//328
f 296//292 335//331 331//327
f 336//332 333//329 335//331
f 339//335 338//334 337//333
f 338//334 315//311 337//333
f 314//310 342//338 339//335
f 342//338 338//334 339//335
f 340//336 347//343 338//334
f 314//310 341//337 342//338
f 311//307 341//337 314//310
f 346//342 342//338 341//337
f 311//307 344//340 341//337
f 344//340 346//342 341//337
f 320//316 311//307 281//277
f 325//321 349//345 324//320
f 634//630 351//347 325//321
f 350//346 320//316 321//317
f 349//345 350//346 324//320
f 352//348 350//346 349//345
f 353//349 352//348 351//347
f 634//630 353//349 351//347
f 330//326 358//354 357//353
f 330//326 362//358 358//354
f 356//352 360//356 359//355
f 361//357 376//372 358//354
f 345//341 364//360 363//359
f 348//344 343//339 345//341
f 354//350 311//307 320//316
f 370//366 352//348 353//349
f 371//367 369//365 352//348
f 369//365 373//369 354//350
f 370//366 374//370 372//368
f 288//284 45//41 39//35
f 355//351 359//355 375//371
f 376//372 378//374 360//356
f 377//373 375//371 359//355
f 360//356 378//374 377//373
f 376//372 379//375 378//374
f 361//357 380//376 376//372
f 367//363 381//377 364//360
f 344//340 381//377 367//363
f 368//364 381//377 344//340
f 382//378 365//361 364//360
f 382//378 364//360 383//379
f 384//380 382//378 383//379
f 384//380 653//649 382//378
f 369//365 385//381 373//369
f 371//367 386//382 369//365
f 372//368 386//382 371//367
f 387//383 386//382 372//368
f 375//371 51//47 288//284
f 389//385 375//371 377//373
f 388//384 391//387 389//385
f 404//400 388//384 390//386
f 394//390 384//380 393//389
f 652//648 394//390 661//657
f 397//393 395//391 383//379
f 397//393 381//377 396//392
f 397//393 393//389 395//391
f 385//381 399//395 373//369
f 398//394 401//397 386//382
f 401//397 399//395 385//381
f 398//394 414//410 401//397
f 402//398 414//410 387//383
f 51//47 403//399 48//44
f 403//399 53//49 48//44
f 404//400 391//387 388//384
f 391//387 407//403 406//402
f 390//386 408//404 405//401
f 428//424 404//400 405//401
f 411//407 394//390 409//405
f 410//406 412//408 393//389
f 411//407 409//405 412//408
f 410//406 413//409 412//408
f 661//657 394//390 411//407
f 396//392 410//406 397//393
f 401//397 414//410 416//412
f 400//396 396//392 368//364
f 416//412 414//410 415//411
f 399//395 417//413 400//396
f 416//412 417//413 399//395
f 400//396 445//441 396//392
f 414//410 418//414 415//411
f 419//415 403//399 51//47
f 53//49 420//416 54//50
f 403//399 420//416 53//49
f 422//418 420//416 403//399
f 420//416 423//419 421//417
f 422//418 427//423 424//420
f 406//402 419//415 375//371
f 407//403 425//421 406//402
f 406//402 426//422 422//418
f 428//424 407//403 404//400
f 425//421 426//422 406//402
f 430//426 428//424 429//425
f 431//427 425//421 428//424
f 405//401 433//429 429//425
f 437//433 411//407 412//408
f 411//407 437//433 435//431
f 413//409 438//434 412//408
f 439//435 438//434 413//409
f 440//436 437//433 412//408
f 448//444 441//437 439//435
f 435//431 440//436 434//430
f 442//438 444//440 443//439
f 445//441 439//435 396//392
f 448//444 446//442 441//437
f 444//440 704//700 696//692
f 415//411 447//443 416//412
f 400//396 417//413 445//441
f 416//412 448//444 417//413
f 447//443 449//445 416//412
f 449//445 444//440 446//442
f 450//446 447//443 415//411
f 449//445 451//447 444//440
f 452//448 453//449 687//683
f 454//450 452//448 424//420
f 432//428 455//451 427//423
f 57//53 84//80 56//52
f 457//453 456//452 59//55
f 458//454 88//84 84//80
f 458//454 459//455 91//87
f 104//100 462//458 101//97
f 462//458 104//100 465//461
f 462//458 466//462 464//460
f 466//462 467//463 463//459
f 463//459 468//464 460//456
f 111//107 469//465 466//462
f 112//108 111//107 105//101
f 471//467 469//465 112//108
f 468//464 467//463 472//468
f 472//468 467//463 473//469
f 473//469 469//465 471//467
f 475//471 121//117 89//85
f 459//455 475//471 91//87
f 461//457 61//57 63//59
f 482//478 480//476 462//458
f 471//467 470//466 118//114
f 476//472 471//467 119//115
f 474//470 468//464 477//473
f 473//469 471//467 476//472
f 478//474 472//468 473//469
f 478//474 473//469 476//472
f 475//471 89//85 91//87
f 482//478 464//460 481//477
f 481//477 460//456 461//457
f 480//476 482//478 126//122
f 483//479 125//121 126//122
f 474//470 477//473 493//489
f 478//474 484//480 485//481
f 121//117 475//471 486//482
f 486//482 149//145 121//117
f 459//455 486//482 475//471
f 479//475 486//482 459//455
f 124//120 125//121 133//129
f 138//134 133//129 125//121
f 488//484 481//477 461//457
f 483//479 481//477 489//485
f 489//485 481//477 488//484
f 490//486 138//134 483//479
f 138//134 139//135 133//129
f 488//484 63//59 487//483
f 138//134 490//486 139//135
f 119//115 128//124 145//141
f 485//481 484//480 491//487
f 491//487 484//480 492//488
f 492//488 147//143 494//490
f 474//470 496//492 479//475
f 31//27 156//152 498//494
f 497//493 487//483 66//62
f 497//493 66//62 67//63
f 498//494 67//63 31//27
f 499//495 497//493 67//63
f 501//497 488//484 487//483
f 501//497 489//485 488//484
f 165//161 160//156 164//160
f 503//499 490//486 489//485
f 503//499 489//485 502//498
f 502//498 489//485 501//497
f 503//499 165//161 164//160
f 503//499 505//501 166//162
f 504//500 505//501 502//498
f 506//502 166//162 505//501
f 507//503 173//169 508//504
f 509//505 511//507 508//504
f 168//164 510//506 174//170
f 510//506 168//164 507//503
f 492//488 494//490 510//506
f 492//488 510//506 511//507
f 491//487 511//507 509//505
f 493//489 491//487 512//508
f 510//506 507//503 511//507
f 513//509 180//176 183//179
f 513//509 534//530 180//176
f 153//149 514//510 183//179
f 535//531 514//510 496//492
f 517//513 497//493 499//495
f 500//496 497//493 517//513
f 519//515 500//496 517//513
f 520//516 519//515 517//513
f 522//518 167//163 199//195
f 523//519 522//518 521//517
f 524//520 504//500 501//497
f 525//521 504//500 524//520
f 521//517 504//500 525//521
f 523//519 521//517 525//521
f 524//520 501//497 518//514
f 526//522 522//518 527//523
f 527//523 522//518 523//519
f 529//525 528//524 525//521
f 529//525 524//520 541//537
f 527//523 508//504 526//522
f 512//508 509//505 530//526
f 530//526 527//523 528//524
f 530//526 508//504 527//523
f 512//508 529//525 541//537
f 495//491 493//489 531//527
f 493//489 512//508 531//527
f 210//206 533//529 207//203
f 532//528 496//492 495//491
f 550//546 535//531 532//528
f 550//546 532//528 531//527
f 535//531 210//206 534//530
f 538//534 520//516 539//535
f 537//533 536//532 213//209
f 542//538 538//534 539//535
f 542//538 539//535 537//533
f 219//215 542//538 537//533
f 543//539 538//534 542//538
f 540//536 538//534 543//539
f 541//537 538//534 540//536
f 223//219 544//540 543//539
f 546//542 541//537 547//543
f 230//226 548//544 568//564
f 563//559 549//545 547//543
f 563//559 551//547 549//545
f 235//231 552//548 232//228
f 552//548 548//544 234//230
f 549//545 550//546 546//542
f 551//547 553//549 549//545
f 548//544 551//547 568//564
f 211//207 235//231 236//232
f 553//549 535//531 550//546
f 553//549 235//231 211//207
f 554//550 238//234 241//237
f 555//551 241//237 575//571
f 555//551 554//550 241//237
f 544//540 223//219 250//246
f 556//552 245//241 248//244
f 545//541 540//536 557//553
f 559//555 248//244 555//551
f 555//551 248//244 554//550
f 560//556 559//555 555//551
f 252//248 561//557 558//554
f 557//553 547//543 545//541
f 556//552 248//244 559//555
f 559//555 562//558 556//552
f 564//560 559//555 565//561
f 565//561 560//556 577//573
f 260//256 567//563 262//258
f 561//557 568//564 563//559
f 564//560 258//254 562//558
f 582//578 567//563 564//560
f 265//261 262//258 567//563
f 571//567 269//265 570//566
f 267//263 570//566 271//267
f 572//568 571//567 570//566
f 572//568 570//566 267//263
f 572//568 267//263 589//585
f 575//571 241//237 571//567
f 576//572 555//551 575//571
f 576//572 575//571 573//569
f 577//573 574//570 578//574
f 577//573 560//556 576//572
f 569//565 565//561 580//576
f 582//578 564//560 569//565
f 567//563 581//577 265//261
f 582//578 581//577 567//563
f 584//580 586//582 581//577
f 588//584 584//580 582//578
f 588//584 582//578 585//581
f 583//579 580//576 579//575
f 587//583 283//279 586//582
f 283//279 587//583 284//280
f 586//582 584//580 588//584
f 267//263 266//262 590//586
f 589//585 267//263 590//586
f 589//585 590//586 591//587
f 591//587 590//586 290//286
f 592//588 591//587 615//611
f 574//570 614//610 71//67
f 591//587 290//286 68//64
f 574//570 592//588 614//610
f 578//574 574//570 618//614
f 300//296 596//592 598//594
f 301//297 596//592 300//296
f 300//296 598//594 303//299
f 593//589 599//595 578//574
f 600//596 599//595 593//589
f 594//590 600//596 593//589
f 310//306 606//602 307//303
f 603//599 602//598 599//595
f 600//596 603//599 599//595
f 310//306 603//599 604//600
f 604//600 600//596 601//597
f 606//602 310//306 604//600
f 607//603 603//599 310//306
f 607//603 605//601 603//599
f 610//606 605//601 607//603
f 315//311 607//603 608//604
f 322//318 323//319 317//313
f 322//318 587//583 588//584
f 322//318 588//584 611//607
f 612//608 611//607 583//579
f 612//608 583//579 609//605
f 612//608 609//605 625//621
f 613//609 326//322 323//319
f 631//627 611//607 612//608
f 615//611 591//587 68//64
f 290//286 34//30 68//64
f 614//610 615//611 71//67
f 617//613 362//358 330//326
f 618//614 574//570 616//612
f 636//632 620//616 618//614
f 621//617 636//632 619//615
f 619//615 362//358 617//613
f 595//591 594//590 593//589
f 297//293 594//590 595//591
f 620//616 593//589 618//614
f 296//292 297//293 335//331
f 595//591 620//616 621//617
f 297//293 621//617 335//331
f 595//591 621//617 297//293
f 621//617 336//332 335//331
f 621//617 620//616 636//632
f 621//617 617//613 336//332
f 338//334 622//618 315//311
f 623//619 610//606 607//603
f 347//343 340//336 348//344
f 626//622 623//619 622//618
f 610//606 623//619 626//622
f 624//620 610//606 626//622
f 625//621 610//606 624//620
f 347//343 626//622 622//618
f 627//623 624//620 626//622
f 347//343 627//623 626//622
f 641//637 624//620 627//623
f 628//624 625//621 624//620
f 634//630 630//626 353//349
f 634//630 633//629 635//631
f 637//633 358//354 362//358
f 637//633 619//615 636//632
f 637//633 636//632 380//376
f 345//341 366//362 639//635
f 639//635 627//623 348//344
f 640//636 641//637 366//362
f 643//639 628//624 644//640
f 628//624 641//637 642//638
f 642//638 641//637 640//636
f 645//641 632//628 629//625
f 635//631 645//641 646//642
f 646//642 630//626 635//631
f 646//642 374//370 630//626
f 650//646 649//645 380//376
f 658//654 638//634 616//612
f 638//634 651//647 650//646
f 651//647 638//634 658//654
f 654//650 642//638 640//636
f 655//651 644//640 654//650
f 665//661 643//639 655//651
f 647//643 629//625 643//639
f 656//652 645//641 647//643
f 646//642 645//641 656//652
f 372//368 670//666 387//383
f 657//653 374//370 646//642
f 648//644 71//67 672//668
f 408//404 390//386 392//388
f 651//647 392//388 649//645
f 660//656 658//654 648//644
f 651//647 658//654 659//655
f 392//388 674//670 408//404
f 674//670 651//647 659//655
f 662//658 663//659 661//657
f 679//675 664//660 662//658
f 666//662 665//661 680//676
f 667//663 656//652 647//643
f 657//653 668//664 671//667
f 668//664 657//653 667//663
f 668//664 402//398 671//667
f 672//668 77//73 80//76
f 676//672 674//670 675//671
f 433//429 405//401 408//404
f 433//429 674//670 676//672
f 678//674 661//657 677//673
f 679//675 681//677 699//695
f 665//661 664//660 679//675
f 680//676 665//661 679//675
f 705//701 680//676 697//693
f 682//678 418//414 402//398
f 669//665 682//678 668//664
f 418//414 414//410 402//398
f 708//704 418//414 669//665
f 708//704 669//665 683//679
f 684//680 82//78 421//417
f 684//680 685//681 82//78
f 684//680 80//76 81//77
f 673//669 672//668 80//76
f 687//683 80//76 684//680
f 673//669 80//76 686//682
f 689//685 673//669 686//682
f 676//672 695//691 692//688
f 676//672 675//671 693//689
f 691//687 692//688 695//691
f 695//691 693//689 694//690
f 700//696 435//431 436//432
f 443//439 696//692 436//432
f 697//693 679//675 699//695
f 680//676 679//675 697//693
f 699//695 681//677 698//694
f 697//693 699//695 701//697
f 700//696 698//694 677//673
f 699//695 698//694 700//696
f 697//693 701//697 702//698
f 696//692 703//699 700//696
f 706//702 705//701 697//693
f 706//702 697//693 702//698
f 706//702 702//698 703//699
f 707//703 703//699 704//700
f 708//704 709//705 418//414
f 706//702 683//679 705//701
f 708//704 706//702 450//446
f 708//704 450//446 709//705
f 450//446 707//703 451//447
f 684//680 421//417 687//683
f 453//449 688//684 687//683
f 453//449 690//686 688//684
f 454//450 710//706 453//449
f 455//451 711//707 710//706
f 711//707 455//451 691//687
f 711//707 690//686 710//706
f 711//707 695//691 690//686
